G04 #@! TF.GenerationSoftware,KiCad,Pcbnew,(5.1.8)-1*
G04 #@! TF.CreationDate,2021-02-16T23:17:12-07:00*
G04 #@! TF.ProjectId,LED-Controller,4c45442d-436f-46e7-9472-6f6c6c65722e,rev?*
G04 #@! TF.SameCoordinates,Original*
G04 #@! TF.FileFunction,Legend,Bot*
G04 #@! TF.FilePolarity,Positive*
%FSLAX46Y46*%
G04 Gerber Fmt 4.6, Leading zero omitted, Abs format (unit mm)*
G04 Created by KiCad (PCBNEW (5.1.8)-1) date 2021-02-16 23:17:12*
%MOMM*%
%LPD*%
G01*
G04 APERTURE LIST*
%ADD10C,0.153000*%
%ADD11C,0.200000*%
%ADD12C,0.400000*%
G04 APERTURE END LIST*
D10*
X155619047Y-99452380D02*
X155619047Y-100166666D01*
X155666666Y-100309523D01*
X155761904Y-100404761D01*
X155904761Y-100452380D01*
X156000000Y-100452380D01*
X154666666Y-100452380D02*
X155142857Y-100452380D01*
X155142857Y-99452380D01*
X153761904Y-100357142D02*
X153809523Y-100404761D01*
X153952380Y-100452380D01*
X154047619Y-100452380D01*
X154190476Y-100404761D01*
X154285714Y-100309523D01*
X154333333Y-100214285D01*
X154380952Y-100023809D01*
X154380952Y-99880952D01*
X154333333Y-99690476D01*
X154285714Y-99595238D01*
X154190476Y-99500000D01*
X154047619Y-99452380D01*
X153952380Y-99452380D01*
X153809523Y-99500000D01*
X153761904Y-99547619D01*
X153047619Y-99452380D02*
X153047619Y-100166666D01*
X153095238Y-100309523D01*
X153190476Y-100404761D01*
X153333333Y-100452380D01*
X153428571Y-100452380D01*
X152095238Y-100452380D02*
X152571428Y-100452380D01*
X152571428Y-99452380D01*
X151190476Y-100357142D02*
X151238095Y-100404761D01*
X151380952Y-100452380D01*
X151476190Y-100452380D01*
X151619047Y-100404761D01*
X151714285Y-100309523D01*
X151761904Y-100214285D01*
X151809523Y-100023809D01*
X151809523Y-99880952D01*
X151761904Y-99690476D01*
X151714285Y-99595238D01*
X151619047Y-99500000D01*
X151476190Y-99452380D01*
X151380952Y-99452380D01*
X151238095Y-99500000D01*
X151190476Y-99547619D01*
X150476190Y-99452380D02*
X150476190Y-100166666D01*
X150523809Y-100309523D01*
X150619047Y-100404761D01*
X150761904Y-100452380D01*
X150857142Y-100452380D01*
X149523809Y-100452380D02*
X150000000Y-100452380D01*
X150000000Y-99452380D01*
X148619047Y-100357142D02*
X148666666Y-100404761D01*
X148809523Y-100452380D01*
X148904761Y-100452380D01*
X149047619Y-100404761D01*
X149142857Y-100309523D01*
X149190476Y-100214285D01*
X149238095Y-100023809D01*
X149238095Y-99880952D01*
X149190476Y-99690476D01*
X149142857Y-99595238D01*
X149047619Y-99500000D01*
X148904761Y-99452380D01*
X148809523Y-99452380D01*
X148666666Y-99500000D01*
X148619047Y-99547619D01*
X147904761Y-99452380D02*
X147904761Y-100166666D01*
X147952380Y-100309523D01*
X148047619Y-100404761D01*
X148190476Y-100452380D01*
X148285714Y-100452380D01*
X146952380Y-100452380D02*
X147428571Y-100452380D01*
X147428571Y-99452380D01*
X146047619Y-100357142D02*
X146095238Y-100404761D01*
X146238095Y-100452380D01*
X146333333Y-100452380D01*
X146476190Y-100404761D01*
X146571428Y-100309523D01*
X146619047Y-100214285D01*
X146666666Y-100023809D01*
X146666666Y-99880952D01*
X146619047Y-99690476D01*
X146571428Y-99595238D01*
X146476190Y-99500000D01*
X146333333Y-99452380D01*
X146238095Y-99452380D01*
X146095238Y-99500000D01*
X146047619Y-99547619D01*
D11*
X130250000Y-100321428D02*
X130392857Y-100250000D01*
X130535714Y-100107142D01*
X130750000Y-99892857D01*
X130892857Y-99821428D01*
X131035714Y-99821428D01*
X130964285Y-100178571D02*
X131107142Y-100107142D01*
X131250000Y-99964285D01*
X131321428Y-99678571D01*
X131321428Y-99178571D01*
X131250000Y-98892857D01*
X131107142Y-98750000D01*
X130964285Y-98678571D01*
X130678571Y-98678571D01*
X130535714Y-98750000D01*
X130392857Y-98892857D01*
X130321428Y-99178571D01*
X130321428Y-99678571D01*
X130392857Y-99964285D01*
X130535714Y-100107142D01*
X130678571Y-100178571D01*
X130964285Y-100178571D01*
X129678571Y-99392857D02*
X129178571Y-99392857D01*
X128964285Y-100178571D02*
X129678571Y-100178571D01*
X129678571Y-98678571D01*
X128964285Y-98678571D01*
X128392857Y-100107142D02*
X128178571Y-100178571D01*
X127821428Y-100178571D01*
X127678571Y-100107142D01*
X127607142Y-100035714D01*
X127535714Y-99892857D01*
X127535714Y-99750000D01*
X127607142Y-99607142D01*
X127678571Y-99535714D01*
X127821428Y-99464285D01*
X128107142Y-99392857D01*
X128250000Y-99321428D01*
X128321428Y-99250000D01*
X128392857Y-99107142D01*
X128392857Y-98964285D01*
X128321428Y-98821428D01*
X128250000Y-98750000D01*
X128107142Y-98678571D01*
X127750000Y-98678571D01*
X127535714Y-98750000D01*
X125821428Y-98821428D02*
X125750000Y-98750000D01*
X125607142Y-98678571D01*
X125250000Y-98678571D01*
X125107142Y-98750000D01*
X125035714Y-98821428D01*
X124964285Y-98964285D01*
X124964285Y-99107142D01*
X125035714Y-99321428D01*
X125892857Y-100178571D01*
X124964285Y-100178571D01*
X124035714Y-98678571D02*
X123892857Y-98678571D01*
X123750000Y-98750000D01*
X123678571Y-98821428D01*
X123607142Y-98964285D01*
X123535714Y-99250000D01*
X123535714Y-99607142D01*
X123607142Y-99892857D01*
X123678571Y-100035714D01*
X123750000Y-100107142D01*
X123892857Y-100178571D01*
X124035714Y-100178571D01*
X124178571Y-100107142D01*
X124250000Y-100035714D01*
X124321428Y-99892857D01*
X124392857Y-99607142D01*
X124392857Y-99250000D01*
X124321428Y-98964285D01*
X124250000Y-98821428D01*
X124178571Y-98750000D01*
X124035714Y-98678571D01*
X122964285Y-98821428D02*
X122892857Y-98750000D01*
X122750000Y-98678571D01*
X122392857Y-98678571D01*
X122250000Y-98750000D01*
X122178571Y-98821428D01*
X122107142Y-98964285D01*
X122107142Y-99107142D01*
X122178571Y-99321428D01*
X123035714Y-100178571D01*
X122107142Y-100178571D01*
X120678571Y-100178571D02*
X121535714Y-100178571D01*
X121107142Y-100178571D02*
X121107142Y-98678571D01*
X121250000Y-98892857D01*
X121392857Y-99035714D01*
X121535714Y-99107142D01*
D12*
X146714285Y-76904761D02*
X146047619Y-78904761D01*
X145380952Y-76904761D01*
X142142857Y-78904761D02*
X143285714Y-78904761D01*
X142714285Y-78904761D02*
X142714285Y-76904761D01*
X142904762Y-77190476D01*
X143095238Y-77380952D01*
X143285714Y-77476190D01*
X141285714Y-78714285D02*
X141190476Y-78809523D01*
X141285714Y-78904761D01*
X141380952Y-78809523D01*
X141285714Y-78714285D01*
X141285714Y-78904761D01*
X139952381Y-76904761D02*
X139761904Y-76904761D01*
X139571428Y-77000000D01*
X139476190Y-77095238D01*
X139380952Y-77285714D01*
X139285714Y-77666666D01*
X139285714Y-78142857D01*
X139380952Y-78523809D01*
X139476190Y-78714285D01*
X139571428Y-78809523D01*
X139761904Y-78904761D01*
X139952381Y-78904761D01*
X140142857Y-78809523D01*
X140238095Y-78714285D01*
X140333333Y-78523809D01*
X140428571Y-78142857D01*
X140428571Y-77666666D01*
X140333333Y-77285714D01*
X140238095Y-77095238D01*
X140142857Y-77000000D01*
X139952381Y-76904761D01*
X145476190Y-75404761D02*
X146428571Y-75404761D01*
X146428571Y-73404761D01*
X144809523Y-74357142D02*
X144142857Y-74357142D01*
X143857142Y-75404761D02*
X144809523Y-75404761D01*
X144809523Y-73404761D01*
X143857142Y-73404761D01*
X143000000Y-75404761D02*
X143000000Y-73404761D01*
X142523809Y-73404761D01*
X142238095Y-73500000D01*
X142047619Y-73690476D01*
X141952380Y-73880952D01*
X141857142Y-74261904D01*
X141857142Y-74547619D01*
X141952380Y-74928571D01*
X142047619Y-75119047D01*
X142238095Y-75309523D01*
X142523809Y-75404761D01*
X143000000Y-75404761D01*
X138333333Y-75214285D02*
X138428571Y-75309523D01*
X138714285Y-75404761D01*
X138904761Y-75404761D01*
X139190476Y-75309523D01*
X139380952Y-75119047D01*
X139476190Y-74928571D01*
X139571428Y-74547619D01*
X139571428Y-74261904D01*
X139476190Y-73880952D01*
X139380952Y-73690476D01*
X139190476Y-73500000D01*
X138904761Y-73404761D01*
X138714285Y-73404761D01*
X138428571Y-73500000D01*
X138333333Y-73595238D01*
X137190476Y-75404761D02*
X137380952Y-75309523D01*
X137476190Y-75214285D01*
X137571428Y-75023809D01*
X137571428Y-74452380D01*
X137476190Y-74261904D01*
X137380952Y-74166666D01*
X137190476Y-74071428D01*
X136904761Y-74071428D01*
X136714285Y-74166666D01*
X136619047Y-74261904D01*
X136523809Y-74452380D01*
X136523809Y-75023809D01*
X136619047Y-75214285D01*
X136714285Y-75309523D01*
X136904761Y-75404761D01*
X137190476Y-75404761D01*
X135666666Y-74071428D02*
X135666666Y-75404761D01*
X135666666Y-74261904D02*
X135571428Y-74166666D01*
X135380952Y-74071428D01*
X135095238Y-74071428D01*
X134904761Y-74166666D01*
X134809523Y-74357142D01*
X134809523Y-75404761D01*
X134142857Y-74071428D02*
X133380952Y-74071428D01*
X133857142Y-73404761D02*
X133857142Y-75119047D01*
X133761904Y-75309523D01*
X133571428Y-75404761D01*
X133380952Y-75404761D01*
X132714285Y-75404761D02*
X132714285Y-74071428D01*
X132714285Y-74452380D02*
X132619047Y-74261904D01*
X132523809Y-74166666D01*
X132333333Y-74071428D01*
X132142857Y-74071428D01*
X131190476Y-75404761D02*
X131380952Y-75309523D01*
X131476190Y-75214285D01*
X131571428Y-75023809D01*
X131571428Y-74452380D01*
X131476190Y-74261904D01*
X131380952Y-74166666D01*
X131190476Y-74071428D01*
X130904761Y-74071428D01*
X130714285Y-74166666D01*
X130619047Y-74261904D01*
X130523809Y-74452380D01*
X130523809Y-75023809D01*
X130619047Y-75214285D01*
X130714285Y-75309523D01*
X130904761Y-75404761D01*
X131190476Y-75404761D01*
X129380952Y-75404761D02*
X129571428Y-75309523D01*
X129666666Y-75119047D01*
X129666666Y-73404761D01*
X128333333Y-75404761D02*
X128523809Y-75309523D01*
X128619047Y-75119047D01*
X128619047Y-73404761D01*
X126809523Y-75309523D02*
X127000000Y-75404761D01*
X127380952Y-75404761D01*
X127571428Y-75309523D01*
X127666666Y-75119047D01*
X127666666Y-74357142D01*
X127571428Y-74166666D01*
X127380952Y-74071428D01*
X127000000Y-74071428D01*
X126809523Y-74166666D01*
X126714285Y-74357142D01*
X126714285Y-74547619D01*
X127666666Y-74738095D01*
X125857142Y-75404761D02*
X125857142Y-74071428D01*
X125857142Y-74452380D02*
X125761904Y-74261904D01*
X125666666Y-74166666D01*
X125476190Y-74071428D01*
X125285714Y-74071428D01*
M02*
