G04 #@! TF.GenerationSoftware,KiCad,Pcbnew,(5.1.8)-1*
G04 #@! TF.CreationDate,2021-02-17T15:41:40-07:00*
G04 #@! TF.ProjectId,LED-Controller,4c45442d-436f-46e7-9472-6f6c6c65722e,rev?*
G04 #@! TF.SameCoordinates,Original*
G04 #@! TF.FileFunction,Soldermask,Bot*
G04 #@! TF.FilePolarity,Negative*
%FSLAX46Y46*%
G04 Gerber Fmt 4.6, Leading zero omitted, Abs format (unit mm)*
G04 Created by KiCad (PCBNEW (5.1.8)-1) date 2021-02-17 15:41:40*
%MOMM*%
%LPD*%
G01*
G04 APERTURE LIST*
%ADD10C,1.752000*%
%ADD11C,2.852000*%
%ADD12O,1.802000X1.802000*%
G04 APERTURE END LIST*
D10*
X153830000Y-91540000D03*
X151290000Y-91540000D03*
X148750000Y-91540000D03*
X153830000Y-89000000D03*
X151290000Y-89000000D03*
G36*
G01*
X147925000Y-88124000D02*
X149575000Y-88124000D01*
G75*
G02*
X149626000Y-88175000I0J-51000D01*
G01*
X149626000Y-89825000D01*
G75*
G02*
X149575000Y-89876000I-51000J0D01*
G01*
X147925000Y-89876000D01*
G75*
G02*
X147874000Y-89825000I0J51000D01*
G01*
X147874000Y-88175000D01*
G75*
G02*
X147925000Y-88124000I51000J0D01*
G01*
G37*
X153830000Y-83790000D03*
X151290000Y-83790000D03*
X148750000Y-83790000D03*
X153830000Y-81250000D03*
X151290000Y-81250000D03*
G36*
G01*
X147925000Y-80374000D02*
X149575000Y-80374000D01*
G75*
G02*
X149626000Y-80425000I0J-51000D01*
G01*
X149626000Y-82075000D01*
G75*
G02*
X149575000Y-82126000I-51000J0D01*
G01*
X147925000Y-82126000D01*
G75*
G02*
X147874000Y-82075000I0J51000D01*
G01*
X147874000Y-80425000D01*
G75*
G02*
X147925000Y-80374000I51000J0D01*
G01*
G37*
X153830000Y-76040000D03*
X151290000Y-76040000D03*
X148750000Y-76040000D03*
X153830000Y-73500000D03*
X151290000Y-73500000D03*
G36*
G01*
X147925000Y-72624000D02*
X149575000Y-72624000D01*
G75*
G02*
X149626000Y-72675000I0J-51000D01*
G01*
X149626000Y-74325000D01*
G75*
G02*
X149575000Y-74376000I-51000J0D01*
G01*
X147925000Y-74376000D01*
G75*
G02*
X147874000Y-74325000I0J51000D01*
G01*
X147874000Y-72675000D01*
G75*
G02*
X147925000Y-72624000I51000J0D01*
G01*
G37*
D11*
X151400000Y-97000000D03*
G36*
G01*
X144574000Y-98166730D02*
X144574000Y-95833270D01*
G75*
G02*
X144833270Y-95574000I259270J0D01*
G01*
X147166730Y-95574000D01*
G75*
G02*
X147426000Y-95833270I0J-259270D01*
G01*
X147426000Y-98166730D01*
G75*
G02*
X147166730Y-98426000I-259270J0D01*
G01*
X144833270Y-98426000D01*
G75*
G02*
X144574000Y-98166730I0J259270D01*
G01*
G37*
D12*
X123170000Y-96500000D03*
X125710000Y-96500000D03*
G36*
G01*
X127400000Y-95599000D02*
X129100000Y-95599000D01*
G75*
G02*
X129151000Y-95650000I0J-51000D01*
G01*
X129151000Y-97350000D01*
G75*
G02*
X129100000Y-97401000I-51000J0D01*
G01*
X127400000Y-97401000D01*
G75*
G02*
X127349000Y-97350000I0J51000D01*
G01*
X127349000Y-95650000D01*
G75*
G02*
X127400000Y-95599000I51000J0D01*
G01*
G37*
X122250000Y-72670000D03*
X122250000Y-75210000D03*
G36*
G01*
X123151000Y-76900000D02*
X123151000Y-78600000D01*
G75*
G02*
X123100000Y-78651000I-51000J0D01*
G01*
X121400000Y-78651000D01*
G75*
G02*
X121349000Y-78600000I0J51000D01*
G01*
X121349000Y-76900000D01*
G75*
G02*
X121400000Y-76849000I51000J0D01*
G01*
X123100000Y-76849000D01*
G75*
G02*
X123151000Y-76900000I0J-51000D01*
G01*
G37*
X141660000Y-71750000D03*
X139120000Y-71750000D03*
X136580000Y-71750000D03*
X134040000Y-71750000D03*
G36*
G01*
X132350000Y-72651000D02*
X130650000Y-72651000D01*
G75*
G02*
X130599000Y-72600000I0J51000D01*
G01*
X130599000Y-70900000D01*
G75*
G02*
X130650000Y-70849000I51000J0D01*
G01*
X132350000Y-70849000D01*
G75*
G02*
X132401000Y-70900000I0J-51000D01*
G01*
X132401000Y-72600000D01*
G75*
G02*
X132350000Y-72651000I-51000J0D01*
G01*
G37*
M02*
