M48
; DRILL file {KiCad (5.1.8)-1} date 08/22/21 18:59:10
; FORMAT={-:-/ absolute / inch / decimal}
; #@! TF.CreationDate,2021-08-22T18:59:10-06:00
; #@! TF.GenerationSoftware,Kicad,Pcbnew,(5.1.8)-1
; #@! TF.FileFunction,Plated,1,2,PTH
FMAT,2
INCH
T1C0.0157
T2C0.0394
T3C0.0433
T4C0.0689
%
G90
G05
T1
X4.7638Y-3.4646
X4.9606Y-3.1791
X5.0Y-3.3957
X5.0837Y-3.0561
X5.3543Y-3.5138
X5.3642Y-3.0512
X5.4232Y-3.2874
X5.4528Y-3.061
X5.4823Y-3.8583
X5.4951Y-3.4321
T2
X4.7835Y-3.6287
X4.7835Y-3.7287
X4.7835Y-3.8287
X5.1772Y-2.8248
X5.2772Y-2.8248
X5.3772Y-2.8248
X5.4772Y-2.8248
X5.5772Y-2.8248
X4.813Y-2.861
X4.813Y-2.961
X4.813Y-3.061
T3
X5.8563Y-2.8937
X5.8563Y-2.9937
X5.9563Y-2.8937
X5.9563Y-2.9937
X6.0563Y-2.8937
X6.0563Y-2.9937
X5.8563Y-3.5039
X5.8563Y-3.6039
X5.9563Y-3.5039
X5.9563Y-3.6039
X6.0563Y-3.5039
X6.0563Y-3.6039
X5.8563Y-3.1988
X5.8563Y-3.2988
X5.9563Y-3.1988
X5.9563Y-3.2988
X6.0563Y-3.1988
X6.0563Y-3.2988
T4
X5.748Y-3.8189
X5.9606Y-3.8189
T0
M30
