G04 #@! TF.GenerationSoftware,KiCad,Pcbnew,(5.1.8)-1*
G04 #@! TF.CreationDate,2021-02-16T23:17:12-07:00*
G04 #@! TF.ProjectId,LED-Controller,4c45442d-436f-46e7-9472-6f6c6c65722e,rev?*
G04 #@! TF.SameCoordinates,Original*
G04 #@! TF.FileFunction,Legend,Top*
G04 #@! TF.FilePolarity,Positive*
%FSLAX46Y46*%
G04 Gerber Fmt 4.6, Leading zero omitted, Abs format (unit mm)*
G04 Created by KiCad (PCBNEW (5.1.8)-1) date 2021-02-16 23:17:12*
%MOMM*%
%LPD*%
G01*
G04 APERTURE LIST*
%ADD10C,0.300000*%
%ADD11C,0.750000*%
%ADD12C,0.100000*%
%ADD13C,0.200000*%
%ADD14C,0.120000*%
%ADD15C,0.254000*%
%ADD16C,0.150000*%
G04 APERTURE END LIST*
D10*
X124500000Y-72250000D02*
X125500000Y-72250000D01*
X125500000Y-72250000D02*
X125500000Y-73250000D01*
X125500000Y-73250000D02*
X124500000Y-73250000D01*
X124500000Y-73250000D02*
X124500000Y-74000000D01*
X124500000Y-71500000D02*
X124500000Y-72250000D01*
X125135714Y-77390476D02*
X125135714Y-78609523D01*
X125135714Y-74890476D02*
X125135714Y-76109523D01*
X124526190Y-75500000D02*
X125745238Y-75500000D01*
D11*
X132650000Y-74000000D02*
G75*
G03*
X132650000Y-74000000I-400000J0D01*
G01*
D10*
X148250000Y-94250000D02*
X148250000Y-93250000D01*
X148250000Y-93250000D02*
X149250000Y-93250000D01*
X149250000Y-93250000D02*
X149250000Y-94250000D01*
X149250000Y-94250000D02*
X150000000Y-94250000D01*
X147500000Y-94250000D02*
X148250000Y-94250000D01*
X153390476Y-93614285D02*
X154609523Y-93614285D01*
X150890476Y-93614285D02*
X152109523Y-93614285D01*
X151500000Y-94223809D02*
X151500000Y-93004761D01*
X148000000Y-86750000D02*
X148000000Y-85750000D01*
X148000000Y-85750000D02*
X149000000Y-85750000D01*
X149000000Y-85750000D02*
X149000000Y-86750000D01*
X149000000Y-86750000D02*
X149750000Y-86750000D01*
X147250000Y-86750000D02*
X148000000Y-86750000D01*
X153140476Y-86114285D02*
X154359523Y-86114285D01*
X150640476Y-86114285D02*
X151859523Y-86114285D01*
X151250000Y-86723809D02*
X151250000Y-85504761D01*
X149000000Y-79000000D02*
X149750000Y-79000000D01*
X149000000Y-78000000D02*
X149000000Y-79000000D01*
X148000000Y-78000000D02*
X149000000Y-78000000D01*
X148000000Y-79000000D02*
X148000000Y-78000000D01*
X147250000Y-79000000D02*
X148000000Y-79000000D01*
X153140476Y-78364285D02*
X154359523Y-78364285D01*
X150640476Y-78364285D02*
X151859523Y-78364285D01*
X151250000Y-78973809D02*
X151250000Y-77754761D01*
D12*
G36*
X129750000Y-71750000D02*
G01*
X128500000Y-73000000D01*
X128500000Y-70500000D01*
X129750000Y-71750000D01*
G37*
X129750000Y-71750000D02*
X128500000Y-73000000D01*
X128500000Y-70500000D01*
X129750000Y-71750000D01*
D10*
X141738095Y-97142857D02*
X143261904Y-97142857D01*
X154238095Y-97142857D02*
X155761904Y-97142857D01*
X155000000Y-97904761D02*
X155000000Y-96380952D01*
D13*
X148750000Y-87730000D02*
X157890000Y-87730000D01*
X157890000Y-87730000D02*
X157890000Y-92810000D01*
X157890000Y-92810000D02*
X155350000Y-92810000D01*
X157890000Y-89000000D02*
X163730000Y-89000000D01*
X157890000Y-91540000D02*
X163730000Y-91540000D01*
X148750000Y-79980000D02*
X157890000Y-79980000D01*
X157890000Y-79980000D02*
X157890000Y-85060000D01*
X157890000Y-85060000D02*
X155350000Y-85060000D01*
X157890000Y-81250000D02*
X163730000Y-81250000D01*
X157890000Y-83790000D02*
X163730000Y-83790000D01*
X148750000Y-72230000D02*
X157890000Y-72230000D01*
X157890000Y-72230000D02*
X157890000Y-77310000D01*
X157890000Y-77310000D02*
X155350000Y-77310000D01*
X157890000Y-73500000D02*
X163730000Y-73500000D01*
X157890000Y-76040000D02*
X163730000Y-76040000D01*
D14*
X126650000Y-84500000D02*
X123850000Y-84500000D01*
X123200000Y-83800000D02*
X123200000Y-83200000D01*
X123850000Y-82500000D02*
X126650000Y-82500000D01*
X127300000Y-83200000D02*
X127300000Y-83800000D01*
X127300000Y-83800000D02*
G75*
G02*
X126600000Y-84500000I-700000J0D01*
G01*
X126600000Y-82500000D02*
G75*
G02*
X127300000Y-83200000I0J-700000D01*
G01*
X123200000Y-83200000D02*
G75*
G02*
X123900000Y-82500000I700000J0D01*
G01*
X123900000Y-84500000D02*
G75*
G02*
X123200000Y-83800000I0J700000D01*
G01*
X133140000Y-75185000D02*
X131325000Y-75185000D01*
X133140000Y-74940000D02*
X133140000Y-75185000D01*
X137000000Y-74940000D02*
X133140000Y-74940000D01*
X140860000Y-74940000D02*
X140860000Y-75185000D01*
X137000000Y-74940000D02*
X140860000Y-74940000D01*
X133140000Y-93060000D02*
X133140000Y-92815000D01*
X137000000Y-93060000D02*
X133140000Y-93060000D01*
X140860000Y-93060000D02*
X140860000Y-92815000D01*
X137000000Y-93060000D02*
X140860000Y-93060000D01*
X130022500Y-75812258D02*
X130022500Y-75337742D01*
X128977500Y-75812258D02*
X128977500Y-75337742D01*
X122237258Y-88977500D02*
X121762742Y-88977500D01*
X122237258Y-90022500D02*
X121762742Y-90022500D01*
X129580000Y-95170000D02*
X129580000Y-96500000D01*
X128250000Y-95170000D02*
X129580000Y-95170000D01*
X126980000Y-95170000D02*
X126980000Y-97830000D01*
X126980000Y-97830000D02*
X121840000Y-97830000D01*
X126980000Y-95170000D02*
X121840000Y-95170000D01*
X121840000Y-95170000D02*
X121840000Y-97830000D01*
X123520000Y-79020000D02*
X122250000Y-79020000D01*
X123520000Y-77750000D02*
X123520000Y-79020000D01*
X121207071Y-72290000D02*
X120810000Y-72290000D01*
X121207071Y-73050000D02*
X120810000Y-73050000D01*
X112150000Y-72290000D02*
X118150000Y-72290000D01*
X112150000Y-73050000D02*
X112150000Y-72290000D01*
X118150000Y-73050000D02*
X112150000Y-73050000D01*
X120810000Y-73940000D02*
X118150000Y-73940000D01*
X121207071Y-74830000D02*
X120810000Y-74830000D01*
X121207071Y-75590000D02*
X120810000Y-75590000D01*
X112150000Y-74830000D02*
X118150000Y-74830000D01*
X112150000Y-75590000D02*
X112150000Y-74830000D01*
X118150000Y-75590000D02*
X112150000Y-75590000D01*
X120810000Y-76480000D02*
X118150000Y-76480000D01*
X121140000Y-77370000D02*
X120810000Y-77370000D01*
X121140000Y-78130000D02*
X120810000Y-78130000D01*
X118150000Y-77470000D02*
X112150000Y-77470000D01*
X118150000Y-77590000D02*
X112150000Y-77590000D01*
X118150000Y-77710000D02*
X112150000Y-77710000D01*
X118150000Y-77830000D02*
X112150000Y-77830000D01*
X118150000Y-77950000D02*
X112150000Y-77950000D01*
X118150000Y-78070000D02*
X112150000Y-78070000D01*
X112150000Y-77370000D02*
X118150000Y-77370000D01*
X112150000Y-78130000D02*
X112150000Y-77370000D01*
X118150000Y-78130000D02*
X112150000Y-78130000D01*
X118150000Y-79080000D02*
X120810000Y-79080000D01*
X118150000Y-71340000D02*
X118150000Y-79080000D01*
X120810000Y-71340000D02*
X118150000Y-71340000D01*
X120810000Y-79080000D02*
X120810000Y-71340000D01*
X130170000Y-73080000D02*
X130170000Y-71750000D01*
X131500000Y-73080000D02*
X130170000Y-73080000D01*
X132770000Y-73080000D02*
X132770000Y-70420000D01*
X132770000Y-70420000D02*
X142990000Y-70420000D01*
X132770000Y-73080000D02*
X142990000Y-73080000D01*
X142990000Y-73080000D02*
X142990000Y-70420000D01*
X125515000Y-88090000D02*
X125515000Y-90550000D01*
X126985000Y-88090000D02*
X125515000Y-88090000D01*
X126985000Y-90550000D02*
X126985000Y-88090000D01*
X145510000Y-86396267D02*
X145510000Y-86103733D01*
X144490000Y-86396267D02*
X144490000Y-86103733D01*
X136090000Y-95788748D02*
X136090000Y-97211252D01*
X137910000Y-95788748D02*
X137910000Y-97211252D01*
D15*
X155804523Y-90673333D02*
X156711666Y-90673333D01*
X156893095Y-90733809D01*
X157014047Y-90854761D01*
X157074523Y-91036190D01*
X157074523Y-91157142D01*
X155804523Y-90189523D02*
X155804523Y-89342857D01*
X157074523Y-89887142D01*
X155804523Y-82923333D02*
X156711666Y-82923333D01*
X156893095Y-82983809D01*
X157014047Y-83104761D01*
X157074523Y-83286190D01*
X157074523Y-83407142D01*
X155804523Y-81774285D02*
X155804523Y-82016190D01*
X155865000Y-82137142D01*
X155925476Y-82197619D01*
X156106904Y-82318571D01*
X156348809Y-82379047D01*
X156832619Y-82379047D01*
X156953571Y-82318571D01*
X157014047Y-82258095D01*
X157074523Y-82137142D01*
X157074523Y-81895238D01*
X157014047Y-81774285D01*
X156953571Y-81713809D01*
X156832619Y-81653333D01*
X156530238Y-81653333D01*
X156409285Y-81713809D01*
X156348809Y-81774285D01*
X156288333Y-81895238D01*
X156288333Y-82137142D01*
X156348809Y-82258095D01*
X156409285Y-82318571D01*
X156530238Y-82379047D01*
X155804523Y-75173333D02*
X156711666Y-75173333D01*
X156893095Y-75233809D01*
X157014047Y-75354761D01*
X157074523Y-75536190D01*
X157074523Y-75657142D01*
X155804523Y-73963809D02*
X155804523Y-74568571D01*
X156409285Y-74629047D01*
X156348809Y-74568571D01*
X156288333Y-74447619D01*
X156288333Y-74145238D01*
X156348809Y-74024285D01*
X156409285Y-73963809D01*
X156530238Y-73903333D01*
X156832619Y-73903333D01*
X156953571Y-73963809D01*
X157014047Y-74024285D01*
X157074523Y-74145238D01*
X157074523Y-74447619D01*
X157014047Y-74568571D01*
X156953571Y-74629047D01*
D16*
X148416666Y-97702380D02*
X148416666Y-98416666D01*
X148369047Y-98559523D01*
X148273809Y-98654761D01*
X148130952Y-98702380D01*
X148035714Y-98702380D01*
X149416666Y-98702380D02*
X148845238Y-98702380D01*
X149130952Y-98702380D02*
X149130952Y-97702380D01*
X149035714Y-97845238D01*
X148940476Y-97940476D01*
X148845238Y-97988095D01*
X124416666Y-84752380D02*
X124416666Y-85466666D01*
X124369047Y-85609523D01*
X124273809Y-85704761D01*
X124130952Y-85752380D01*
X124035714Y-85752380D01*
X124892857Y-85752380D02*
X124892857Y-84752380D01*
X125273809Y-84752380D01*
X125369047Y-84800000D01*
X125416666Y-84847619D01*
X125464285Y-84942857D01*
X125464285Y-85085714D01*
X125416666Y-85180952D01*
X125369047Y-85228571D01*
X125273809Y-85276190D01*
X124892857Y-85276190D01*
X126416666Y-85752380D02*
X125845238Y-85752380D01*
X126130952Y-85752380D02*
X126130952Y-84752380D01*
X126035714Y-84895238D01*
X125940476Y-84990476D01*
X125845238Y-85038095D01*
X128135714Y-83952380D02*
X127564285Y-83952380D01*
X127850000Y-83952380D02*
X127850000Y-82952380D01*
X127754761Y-83095238D01*
X127659523Y-83190476D01*
X127564285Y-83238095D01*
X122316666Y-82952380D02*
X122935714Y-82952380D01*
X122602380Y-83333333D01*
X122745238Y-83333333D01*
X122840476Y-83380952D01*
X122888095Y-83428571D01*
X122935714Y-83523809D01*
X122935714Y-83761904D01*
X122888095Y-83857142D01*
X122840476Y-83904761D01*
X122745238Y-83952380D01*
X122459523Y-83952380D01*
X122364285Y-83904761D01*
X122316666Y-83857142D01*
X136238095Y-75452380D02*
X136238095Y-76261904D01*
X136285714Y-76357142D01*
X136333333Y-76404761D01*
X136428571Y-76452380D01*
X136619047Y-76452380D01*
X136714285Y-76404761D01*
X136761904Y-76357142D01*
X136809523Y-76261904D01*
X136809523Y-75452380D01*
X137809523Y-76452380D02*
X137238095Y-76452380D01*
X137523809Y-76452380D02*
X137523809Y-75452380D01*
X137428571Y-75595238D01*
X137333333Y-75690476D01*
X137238095Y-75738095D01*
X128522380Y-75741666D02*
X128046190Y-76075000D01*
X128522380Y-76313095D02*
X127522380Y-76313095D01*
X127522380Y-75932142D01*
X127570000Y-75836904D01*
X127617619Y-75789285D01*
X127712857Y-75741666D01*
X127855714Y-75741666D01*
X127950952Y-75789285D01*
X127998571Y-75836904D01*
X128046190Y-75932142D01*
X128046190Y-76313095D01*
X128522380Y-74789285D02*
X128522380Y-75360714D01*
X128522380Y-75075000D02*
X127522380Y-75075000D01*
X127665238Y-75170238D01*
X127760476Y-75265476D01*
X127808095Y-75360714D01*
X121833333Y-91382380D02*
X121500000Y-90906190D01*
X121261904Y-91382380D02*
X121261904Y-90382380D01*
X121642857Y-90382380D01*
X121738095Y-90430000D01*
X121785714Y-90477619D01*
X121833333Y-90572857D01*
X121833333Y-90715714D01*
X121785714Y-90810952D01*
X121738095Y-90858571D01*
X121642857Y-90906190D01*
X121261904Y-90906190D01*
X122214285Y-90477619D02*
X122261904Y-90430000D01*
X122357142Y-90382380D01*
X122595238Y-90382380D01*
X122690476Y-90430000D01*
X122738095Y-90477619D01*
X122785714Y-90572857D01*
X122785714Y-90668095D01*
X122738095Y-90810952D01*
X122166666Y-91382380D01*
X122785714Y-91382380D01*
X130032380Y-96833333D02*
X130746666Y-96833333D01*
X130889523Y-96880952D01*
X130984761Y-96976190D01*
X131032380Y-97119047D01*
X131032380Y-97214285D01*
X130365714Y-95928571D02*
X131032380Y-95928571D01*
X129984761Y-96166666D02*
X130699047Y-96404761D01*
X130699047Y-95785714D01*
X121666666Y-79702380D02*
X121666666Y-80416666D01*
X121619047Y-80559523D01*
X121523809Y-80654761D01*
X121380952Y-80702380D01*
X121285714Y-80702380D01*
X122047619Y-79702380D02*
X122666666Y-79702380D01*
X122333333Y-80083333D01*
X122476190Y-80083333D01*
X122571428Y-80130952D01*
X122619047Y-80178571D01*
X122666666Y-80273809D01*
X122666666Y-80511904D01*
X122619047Y-80607142D01*
X122571428Y-80654761D01*
X122476190Y-80702380D01*
X122190476Y-80702380D01*
X122095238Y-80654761D01*
X122047619Y-80607142D01*
X143702380Y-72333333D02*
X144416666Y-72333333D01*
X144559523Y-72380952D01*
X144654761Y-72476190D01*
X144702380Y-72619047D01*
X144702380Y-72714285D01*
X143797619Y-71904761D02*
X143750000Y-71857142D01*
X143702380Y-71761904D01*
X143702380Y-71523809D01*
X143750000Y-71428571D01*
X143797619Y-71380952D01*
X143892857Y-71333333D01*
X143988095Y-71333333D01*
X144130952Y-71380952D01*
X144702380Y-71952380D01*
X144702380Y-71333333D01*
X128132380Y-90488095D02*
X127132380Y-90488095D01*
X127132380Y-90250000D01*
X127180000Y-90107142D01*
X127275238Y-90011904D01*
X127370476Y-89964285D01*
X127560952Y-89916666D01*
X127703809Y-89916666D01*
X127894285Y-89964285D01*
X127989523Y-90011904D01*
X128084761Y-90107142D01*
X128132380Y-90250000D01*
X128132380Y-90488095D01*
X128132380Y-88964285D02*
X128132380Y-89535714D01*
X128132380Y-89250000D02*
X127132380Y-89250000D01*
X127275238Y-89345238D01*
X127370476Y-89440476D01*
X127418095Y-89535714D01*
X146857142Y-87166666D02*
X146904761Y-87214285D01*
X146952380Y-87357142D01*
X146952380Y-87452380D01*
X146904761Y-87595238D01*
X146809523Y-87690476D01*
X146714285Y-87738095D01*
X146523809Y-87785714D01*
X146380952Y-87785714D01*
X146190476Y-87738095D01*
X146095238Y-87690476D01*
X146000000Y-87595238D01*
X145952380Y-87452380D01*
X145952380Y-87357142D01*
X146000000Y-87214285D01*
X146047619Y-87166666D01*
X146047619Y-86785714D02*
X146000000Y-86738095D01*
X145952380Y-86642857D01*
X145952380Y-86404761D01*
X146000000Y-86309523D01*
X146047619Y-86261904D01*
X146142857Y-86214285D01*
X146238095Y-86214285D01*
X146380952Y-86261904D01*
X146952380Y-86833333D01*
X146952380Y-86214285D01*
X139207142Y-96666666D02*
X139254761Y-96714285D01*
X139302380Y-96857142D01*
X139302380Y-96952380D01*
X139254761Y-97095238D01*
X139159523Y-97190476D01*
X139064285Y-97238095D01*
X138873809Y-97285714D01*
X138730952Y-97285714D01*
X138540476Y-97238095D01*
X138445238Y-97190476D01*
X138350000Y-97095238D01*
X138302380Y-96952380D01*
X138302380Y-96857142D01*
X138350000Y-96714285D01*
X138397619Y-96666666D01*
X139302380Y-95714285D02*
X139302380Y-96285714D01*
X139302380Y-96000000D02*
X138302380Y-96000000D01*
X138445238Y-96095238D01*
X138540476Y-96190476D01*
X138588095Y-96285714D01*
M02*
