G04 #@! TF.GenerationSoftware,KiCad,Pcbnew,(5.1.8)-1*
G04 #@! TF.CreationDate,2021-08-22T18:59:02-06:00*
G04 #@! TF.ProjectId,LED-Controller,4c45442d-436f-46e7-9472-6f6c6c65722e,rev?*
G04 #@! TF.SameCoordinates,Original*
G04 #@! TF.FileFunction,Copper,L1,Top*
G04 #@! TF.FilePolarity,Positive*
%FSLAX46Y46*%
G04 Gerber Fmt 4.6, Leading zero omitted, Abs format (unit mm)*
G04 Created by KiCad (PCBNEW (5.1.8)-1) date 2021-08-22 18:59:02*
%MOMM*%
%LPD*%
G01*
G04 APERTURE LIST*
G04 #@! TA.AperFunction,EtchedComponent*
%ADD10C,0.100000*%
G04 #@! TD*
G04 #@! TA.AperFunction,ComponentPad*
%ADD11C,1.650000*%
G04 #@! TD*
G04 #@! TA.AperFunction,ComponentPad*
%ADD12R,1.650000X1.650000*%
G04 #@! TD*
G04 #@! TA.AperFunction,ComponentPad*
%ADD13C,2.750000*%
G04 #@! TD*
G04 #@! TA.AperFunction,SMDPad,CuDef*
%ADD14C,0.100000*%
G04 #@! TD*
G04 #@! TA.AperFunction,SMDPad,CuDef*
%ADD15R,1.000000X1.500000*%
G04 #@! TD*
G04 #@! TA.AperFunction,ComponentPad*
%ADD16O,1.700000X1.700000*%
G04 #@! TD*
G04 #@! TA.AperFunction,ComponentPad*
%ADD17R,1.700000X1.700000*%
G04 #@! TD*
G04 #@! TA.AperFunction,ViaPad*
%ADD18C,0.800000*%
G04 #@! TD*
G04 #@! TA.AperFunction,Conductor*
%ADD19C,0.250000*%
G04 #@! TD*
G04 #@! TA.AperFunction,Conductor*
%ADD20C,2.000000*%
G04 #@! TD*
G04 APERTURE END LIST*
D10*
G36*
X126150000Y-83800000D02*
G01*
X125650000Y-83800000D01*
X125650000Y-83200000D01*
X126150000Y-83200000D01*
X126150000Y-83800000D01*
G37*
D11*
X153830000Y-91540000D03*
X151290000Y-91540000D03*
X148750000Y-91540000D03*
X153830000Y-89000000D03*
X151290000Y-89000000D03*
D12*
X148750000Y-89000000D03*
D11*
X153830000Y-83790000D03*
X151290000Y-83790000D03*
X148750000Y-83790000D03*
X153830000Y-81250000D03*
X151290000Y-81250000D03*
D12*
X148750000Y-81250000D03*
D11*
X153830000Y-76040000D03*
X151290000Y-76040000D03*
X148750000Y-76040000D03*
X153830000Y-73500000D03*
X151290000Y-73500000D03*
D12*
X148750000Y-73500000D03*
D13*
X151400000Y-97000000D03*
G04 #@! TA.AperFunction,ComponentPad*
G36*
G01*
X144625000Y-98125002D02*
X144625000Y-95874998D01*
G75*
G02*
X144874998Y-95625000I249998J0D01*
G01*
X147125002Y-95625000D01*
G75*
G02*
X147375000Y-95874998I0J-249998D01*
G01*
X147375000Y-98125002D01*
G75*
G02*
X147125002Y-98375000I-249998J0D01*
G01*
X144874998Y-98375000D01*
G75*
G02*
X144625000Y-98125002I0J249998D01*
G01*
G37*
G04 #@! TD.AperFunction*
G04 #@! TA.AperFunction,SMDPad,CuDef*
D14*
G36*
X126000000Y-82750000D02*
G01*
X126550000Y-82750000D01*
X126550000Y-82750602D01*
X126574534Y-82750602D01*
X126623365Y-82755412D01*
X126671490Y-82764984D01*
X126718445Y-82779228D01*
X126763778Y-82798005D01*
X126807051Y-82821136D01*
X126847850Y-82848396D01*
X126885779Y-82879524D01*
X126920476Y-82914221D01*
X126951604Y-82952150D01*
X126978864Y-82992949D01*
X127001995Y-83036222D01*
X127020772Y-83081555D01*
X127035016Y-83128510D01*
X127044588Y-83176635D01*
X127049398Y-83225466D01*
X127049398Y-83250000D01*
X127050000Y-83250000D01*
X127050000Y-83750000D01*
X127049398Y-83750000D01*
X127049398Y-83774534D01*
X127044588Y-83823365D01*
X127035016Y-83871490D01*
X127020772Y-83918445D01*
X127001995Y-83963778D01*
X126978864Y-84007051D01*
X126951604Y-84047850D01*
X126920476Y-84085779D01*
X126885779Y-84120476D01*
X126847850Y-84151604D01*
X126807051Y-84178864D01*
X126763778Y-84201995D01*
X126718445Y-84220772D01*
X126671490Y-84235016D01*
X126623365Y-84244588D01*
X126574534Y-84249398D01*
X126550000Y-84249398D01*
X126550000Y-84250000D01*
X126000000Y-84250000D01*
X126000000Y-82750000D01*
G37*
G04 #@! TD.AperFunction*
D15*
X125250000Y-83500000D03*
G04 #@! TA.AperFunction,SMDPad,CuDef*
D14*
G36*
X123950000Y-84249398D02*
G01*
X123925466Y-84249398D01*
X123876635Y-84244588D01*
X123828510Y-84235016D01*
X123781555Y-84220772D01*
X123736222Y-84201995D01*
X123692949Y-84178864D01*
X123652150Y-84151604D01*
X123614221Y-84120476D01*
X123579524Y-84085779D01*
X123548396Y-84047850D01*
X123521136Y-84007051D01*
X123498005Y-83963778D01*
X123479228Y-83918445D01*
X123464984Y-83871490D01*
X123455412Y-83823365D01*
X123450602Y-83774534D01*
X123450602Y-83750000D01*
X123450000Y-83750000D01*
X123450000Y-83250000D01*
X123450602Y-83250000D01*
X123450602Y-83225466D01*
X123455412Y-83176635D01*
X123464984Y-83128510D01*
X123479228Y-83081555D01*
X123498005Y-83036222D01*
X123521136Y-82992949D01*
X123548396Y-82952150D01*
X123579524Y-82914221D01*
X123614221Y-82879524D01*
X123652150Y-82848396D01*
X123692949Y-82821136D01*
X123736222Y-82798005D01*
X123781555Y-82779228D01*
X123828510Y-82764984D01*
X123876635Y-82755412D01*
X123925466Y-82750602D01*
X123950000Y-82750602D01*
X123950000Y-82750000D01*
X124500000Y-82750000D01*
X124500000Y-84250000D01*
X123950000Y-84250000D01*
X123950000Y-84249398D01*
G37*
G04 #@! TD.AperFunction*
G04 #@! TA.AperFunction,SMDPad,CuDef*
G36*
G01*
X140625000Y-75895000D02*
X140625000Y-75595000D01*
G75*
G02*
X140775000Y-75445000I150000J0D01*
G01*
X142525000Y-75445000D01*
G75*
G02*
X142675000Y-75595000I0J-150000D01*
G01*
X142675000Y-75895000D01*
G75*
G02*
X142525000Y-76045000I-150000J0D01*
G01*
X140775000Y-76045000D01*
G75*
G02*
X140625000Y-75895000I0J150000D01*
G01*
G37*
G04 #@! TD.AperFunction*
G04 #@! TA.AperFunction,SMDPad,CuDef*
G36*
G01*
X140625000Y-77165000D02*
X140625000Y-76865000D01*
G75*
G02*
X140775000Y-76715000I150000J0D01*
G01*
X142525000Y-76715000D01*
G75*
G02*
X142675000Y-76865000I0J-150000D01*
G01*
X142675000Y-77165000D01*
G75*
G02*
X142525000Y-77315000I-150000J0D01*
G01*
X140775000Y-77315000D01*
G75*
G02*
X140625000Y-77165000I0J150000D01*
G01*
G37*
G04 #@! TD.AperFunction*
G04 #@! TA.AperFunction,SMDPad,CuDef*
G36*
G01*
X140625000Y-78435000D02*
X140625000Y-78135000D01*
G75*
G02*
X140775000Y-77985000I150000J0D01*
G01*
X142525000Y-77985000D01*
G75*
G02*
X142675000Y-78135000I0J-150000D01*
G01*
X142675000Y-78435000D01*
G75*
G02*
X142525000Y-78585000I-150000J0D01*
G01*
X140775000Y-78585000D01*
G75*
G02*
X140625000Y-78435000I0J150000D01*
G01*
G37*
G04 #@! TD.AperFunction*
G04 #@! TA.AperFunction,SMDPad,CuDef*
G36*
G01*
X140625000Y-79705000D02*
X140625000Y-79405000D01*
G75*
G02*
X140775000Y-79255000I150000J0D01*
G01*
X142525000Y-79255000D01*
G75*
G02*
X142675000Y-79405000I0J-150000D01*
G01*
X142675000Y-79705000D01*
G75*
G02*
X142525000Y-79855000I-150000J0D01*
G01*
X140775000Y-79855000D01*
G75*
G02*
X140625000Y-79705000I0J150000D01*
G01*
G37*
G04 #@! TD.AperFunction*
G04 #@! TA.AperFunction,SMDPad,CuDef*
G36*
G01*
X140625000Y-80975000D02*
X140625000Y-80675000D01*
G75*
G02*
X140775000Y-80525000I150000J0D01*
G01*
X142525000Y-80525000D01*
G75*
G02*
X142675000Y-80675000I0J-150000D01*
G01*
X142675000Y-80975000D01*
G75*
G02*
X142525000Y-81125000I-150000J0D01*
G01*
X140775000Y-81125000D01*
G75*
G02*
X140625000Y-80975000I0J150000D01*
G01*
G37*
G04 #@! TD.AperFunction*
G04 #@! TA.AperFunction,SMDPad,CuDef*
G36*
G01*
X140625000Y-82245000D02*
X140625000Y-81945000D01*
G75*
G02*
X140775000Y-81795000I150000J0D01*
G01*
X142525000Y-81795000D01*
G75*
G02*
X142675000Y-81945000I0J-150000D01*
G01*
X142675000Y-82245000D01*
G75*
G02*
X142525000Y-82395000I-150000J0D01*
G01*
X140775000Y-82395000D01*
G75*
G02*
X140625000Y-82245000I0J150000D01*
G01*
G37*
G04 #@! TD.AperFunction*
G04 #@! TA.AperFunction,SMDPad,CuDef*
G36*
G01*
X140625000Y-83515000D02*
X140625000Y-83215000D01*
G75*
G02*
X140775000Y-83065000I150000J0D01*
G01*
X142525000Y-83065000D01*
G75*
G02*
X142675000Y-83215000I0J-150000D01*
G01*
X142675000Y-83515000D01*
G75*
G02*
X142525000Y-83665000I-150000J0D01*
G01*
X140775000Y-83665000D01*
G75*
G02*
X140625000Y-83515000I0J150000D01*
G01*
G37*
G04 #@! TD.AperFunction*
G04 #@! TA.AperFunction,SMDPad,CuDef*
G36*
G01*
X140625000Y-84785000D02*
X140625000Y-84485000D01*
G75*
G02*
X140775000Y-84335000I150000J0D01*
G01*
X142525000Y-84335000D01*
G75*
G02*
X142675000Y-84485000I0J-150000D01*
G01*
X142675000Y-84785000D01*
G75*
G02*
X142525000Y-84935000I-150000J0D01*
G01*
X140775000Y-84935000D01*
G75*
G02*
X140625000Y-84785000I0J150000D01*
G01*
G37*
G04 #@! TD.AperFunction*
G04 #@! TA.AperFunction,SMDPad,CuDef*
G36*
G01*
X140625000Y-86055000D02*
X140625000Y-85755000D01*
G75*
G02*
X140775000Y-85605000I150000J0D01*
G01*
X142525000Y-85605000D01*
G75*
G02*
X142675000Y-85755000I0J-150000D01*
G01*
X142675000Y-86055000D01*
G75*
G02*
X142525000Y-86205000I-150000J0D01*
G01*
X140775000Y-86205000D01*
G75*
G02*
X140625000Y-86055000I0J150000D01*
G01*
G37*
G04 #@! TD.AperFunction*
G04 #@! TA.AperFunction,SMDPad,CuDef*
G36*
G01*
X140625000Y-87325000D02*
X140625000Y-87025000D01*
G75*
G02*
X140775000Y-86875000I150000J0D01*
G01*
X142525000Y-86875000D01*
G75*
G02*
X142675000Y-87025000I0J-150000D01*
G01*
X142675000Y-87325000D01*
G75*
G02*
X142525000Y-87475000I-150000J0D01*
G01*
X140775000Y-87475000D01*
G75*
G02*
X140625000Y-87325000I0J150000D01*
G01*
G37*
G04 #@! TD.AperFunction*
G04 #@! TA.AperFunction,SMDPad,CuDef*
G36*
G01*
X140625000Y-88595000D02*
X140625000Y-88295000D01*
G75*
G02*
X140775000Y-88145000I150000J0D01*
G01*
X142525000Y-88145000D01*
G75*
G02*
X142675000Y-88295000I0J-150000D01*
G01*
X142675000Y-88595000D01*
G75*
G02*
X142525000Y-88745000I-150000J0D01*
G01*
X140775000Y-88745000D01*
G75*
G02*
X140625000Y-88595000I0J150000D01*
G01*
G37*
G04 #@! TD.AperFunction*
G04 #@! TA.AperFunction,SMDPad,CuDef*
G36*
G01*
X140625000Y-89865000D02*
X140625000Y-89565000D01*
G75*
G02*
X140775000Y-89415000I150000J0D01*
G01*
X142525000Y-89415000D01*
G75*
G02*
X142675000Y-89565000I0J-150000D01*
G01*
X142675000Y-89865000D01*
G75*
G02*
X142525000Y-90015000I-150000J0D01*
G01*
X140775000Y-90015000D01*
G75*
G02*
X140625000Y-89865000I0J150000D01*
G01*
G37*
G04 #@! TD.AperFunction*
G04 #@! TA.AperFunction,SMDPad,CuDef*
G36*
G01*
X140625000Y-91135000D02*
X140625000Y-90835000D01*
G75*
G02*
X140775000Y-90685000I150000J0D01*
G01*
X142525000Y-90685000D01*
G75*
G02*
X142675000Y-90835000I0J-150000D01*
G01*
X142675000Y-91135000D01*
G75*
G02*
X142525000Y-91285000I-150000J0D01*
G01*
X140775000Y-91285000D01*
G75*
G02*
X140625000Y-91135000I0J150000D01*
G01*
G37*
G04 #@! TD.AperFunction*
G04 #@! TA.AperFunction,SMDPad,CuDef*
G36*
G01*
X140625000Y-92405000D02*
X140625000Y-92105000D01*
G75*
G02*
X140775000Y-91955000I150000J0D01*
G01*
X142525000Y-91955000D01*
G75*
G02*
X142675000Y-92105000I0J-150000D01*
G01*
X142675000Y-92405000D01*
G75*
G02*
X142525000Y-92555000I-150000J0D01*
G01*
X140775000Y-92555000D01*
G75*
G02*
X140625000Y-92405000I0J150000D01*
G01*
G37*
G04 #@! TD.AperFunction*
G04 #@! TA.AperFunction,SMDPad,CuDef*
G36*
G01*
X131325000Y-92405000D02*
X131325000Y-92105000D01*
G75*
G02*
X131475000Y-91955000I150000J0D01*
G01*
X133225000Y-91955000D01*
G75*
G02*
X133375000Y-92105000I0J-150000D01*
G01*
X133375000Y-92405000D01*
G75*
G02*
X133225000Y-92555000I-150000J0D01*
G01*
X131475000Y-92555000D01*
G75*
G02*
X131325000Y-92405000I0J150000D01*
G01*
G37*
G04 #@! TD.AperFunction*
G04 #@! TA.AperFunction,SMDPad,CuDef*
G36*
G01*
X131325000Y-91135000D02*
X131325000Y-90835000D01*
G75*
G02*
X131475000Y-90685000I150000J0D01*
G01*
X133225000Y-90685000D01*
G75*
G02*
X133375000Y-90835000I0J-150000D01*
G01*
X133375000Y-91135000D01*
G75*
G02*
X133225000Y-91285000I-150000J0D01*
G01*
X131475000Y-91285000D01*
G75*
G02*
X131325000Y-91135000I0J150000D01*
G01*
G37*
G04 #@! TD.AperFunction*
G04 #@! TA.AperFunction,SMDPad,CuDef*
G36*
G01*
X131325000Y-89865000D02*
X131325000Y-89565000D01*
G75*
G02*
X131475000Y-89415000I150000J0D01*
G01*
X133225000Y-89415000D01*
G75*
G02*
X133375000Y-89565000I0J-150000D01*
G01*
X133375000Y-89865000D01*
G75*
G02*
X133225000Y-90015000I-150000J0D01*
G01*
X131475000Y-90015000D01*
G75*
G02*
X131325000Y-89865000I0J150000D01*
G01*
G37*
G04 #@! TD.AperFunction*
G04 #@! TA.AperFunction,SMDPad,CuDef*
G36*
G01*
X131325000Y-88595000D02*
X131325000Y-88295000D01*
G75*
G02*
X131475000Y-88145000I150000J0D01*
G01*
X133225000Y-88145000D01*
G75*
G02*
X133375000Y-88295000I0J-150000D01*
G01*
X133375000Y-88595000D01*
G75*
G02*
X133225000Y-88745000I-150000J0D01*
G01*
X131475000Y-88745000D01*
G75*
G02*
X131325000Y-88595000I0J150000D01*
G01*
G37*
G04 #@! TD.AperFunction*
G04 #@! TA.AperFunction,SMDPad,CuDef*
G36*
G01*
X131325000Y-87325000D02*
X131325000Y-87025000D01*
G75*
G02*
X131475000Y-86875000I150000J0D01*
G01*
X133225000Y-86875000D01*
G75*
G02*
X133375000Y-87025000I0J-150000D01*
G01*
X133375000Y-87325000D01*
G75*
G02*
X133225000Y-87475000I-150000J0D01*
G01*
X131475000Y-87475000D01*
G75*
G02*
X131325000Y-87325000I0J150000D01*
G01*
G37*
G04 #@! TD.AperFunction*
G04 #@! TA.AperFunction,SMDPad,CuDef*
G36*
G01*
X131325000Y-86055000D02*
X131325000Y-85755000D01*
G75*
G02*
X131475000Y-85605000I150000J0D01*
G01*
X133225000Y-85605000D01*
G75*
G02*
X133375000Y-85755000I0J-150000D01*
G01*
X133375000Y-86055000D01*
G75*
G02*
X133225000Y-86205000I-150000J0D01*
G01*
X131475000Y-86205000D01*
G75*
G02*
X131325000Y-86055000I0J150000D01*
G01*
G37*
G04 #@! TD.AperFunction*
G04 #@! TA.AperFunction,SMDPad,CuDef*
G36*
G01*
X131325000Y-84785000D02*
X131325000Y-84485000D01*
G75*
G02*
X131475000Y-84335000I150000J0D01*
G01*
X133225000Y-84335000D01*
G75*
G02*
X133375000Y-84485000I0J-150000D01*
G01*
X133375000Y-84785000D01*
G75*
G02*
X133225000Y-84935000I-150000J0D01*
G01*
X131475000Y-84935000D01*
G75*
G02*
X131325000Y-84785000I0J150000D01*
G01*
G37*
G04 #@! TD.AperFunction*
G04 #@! TA.AperFunction,SMDPad,CuDef*
G36*
G01*
X131325000Y-83515000D02*
X131325000Y-83215000D01*
G75*
G02*
X131475000Y-83065000I150000J0D01*
G01*
X133225000Y-83065000D01*
G75*
G02*
X133375000Y-83215000I0J-150000D01*
G01*
X133375000Y-83515000D01*
G75*
G02*
X133225000Y-83665000I-150000J0D01*
G01*
X131475000Y-83665000D01*
G75*
G02*
X131325000Y-83515000I0J150000D01*
G01*
G37*
G04 #@! TD.AperFunction*
G04 #@! TA.AperFunction,SMDPad,CuDef*
G36*
G01*
X131325000Y-82245000D02*
X131325000Y-81945000D01*
G75*
G02*
X131475000Y-81795000I150000J0D01*
G01*
X133225000Y-81795000D01*
G75*
G02*
X133375000Y-81945000I0J-150000D01*
G01*
X133375000Y-82245000D01*
G75*
G02*
X133225000Y-82395000I-150000J0D01*
G01*
X131475000Y-82395000D01*
G75*
G02*
X131325000Y-82245000I0J150000D01*
G01*
G37*
G04 #@! TD.AperFunction*
G04 #@! TA.AperFunction,SMDPad,CuDef*
G36*
G01*
X131325000Y-80975000D02*
X131325000Y-80675000D01*
G75*
G02*
X131475000Y-80525000I150000J0D01*
G01*
X133225000Y-80525000D01*
G75*
G02*
X133375000Y-80675000I0J-150000D01*
G01*
X133375000Y-80975000D01*
G75*
G02*
X133225000Y-81125000I-150000J0D01*
G01*
X131475000Y-81125000D01*
G75*
G02*
X131325000Y-80975000I0J150000D01*
G01*
G37*
G04 #@! TD.AperFunction*
G04 #@! TA.AperFunction,SMDPad,CuDef*
G36*
G01*
X131325000Y-79705000D02*
X131325000Y-79405000D01*
G75*
G02*
X131475000Y-79255000I150000J0D01*
G01*
X133225000Y-79255000D01*
G75*
G02*
X133375000Y-79405000I0J-150000D01*
G01*
X133375000Y-79705000D01*
G75*
G02*
X133225000Y-79855000I-150000J0D01*
G01*
X131475000Y-79855000D01*
G75*
G02*
X131325000Y-79705000I0J150000D01*
G01*
G37*
G04 #@! TD.AperFunction*
G04 #@! TA.AperFunction,SMDPad,CuDef*
G36*
G01*
X131325000Y-78435000D02*
X131325000Y-78135000D01*
G75*
G02*
X131475000Y-77985000I150000J0D01*
G01*
X133225000Y-77985000D01*
G75*
G02*
X133375000Y-78135000I0J-150000D01*
G01*
X133375000Y-78435000D01*
G75*
G02*
X133225000Y-78585000I-150000J0D01*
G01*
X131475000Y-78585000D01*
G75*
G02*
X131325000Y-78435000I0J150000D01*
G01*
G37*
G04 #@! TD.AperFunction*
G04 #@! TA.AperFunction,SMDPad,CuDef*
G36*
G01*
X131325000Y-77165000D02*
X131325000Y-76865000D01*
G75*
G02*
X131475000Y-76715000I150000J0D01*
G01*
X133225000Y-76715000D01*
G75*
G02*
X133375000Y-76865000I0J-150000D01*
G01*
X133375000Y-77165000D01*
G75*
G02*
X133225000Y-77315000I-150000J0D01*
G01*
X131475000Y-77315000D01*
G75*
G02*
X131325000Y-77165000I0J150000D01*
G01*
G37*
G04 #@! TD.AperFunction*
G04 #@! TA.AperFunction,SMDPad,CuDef*
G36*
G01*
X131325000Y-75895000D02*
X131325000Y-75595000D01*
G75*
G02*
X131475000Y-75445000I150000J0D01*
G01*
X133225000Y-75445000D01*
G75*
G02*
X133375000Y-75595000I0J-150000D01*
G01*
X133375000Y-75895000D01*
G75*
G02*
X133225000Y-76045000I-150000J0D01*
G01*
X131475000Y-76045000D01*
G75*
G02*
X131325000Y-75895000I0J150000D01*
G01*
G37*
G04 #@! TD.AperFunction*
G04 #@! TA.AperFunction,SMDPad,CuDef*
G36*
G01*
X129775000Y-75150000D02*
X129225000Y-75150000D01*
G75*
G02*
X129025000Y-74950000I0J200000D01*
G01*
X129025000Y-74550000D01*
G75*
G02*
X129225000Y-74350000I200000J0D01*
G01*
X129775000Y-74350000D01*
G75*
G02*
X129975000Y-74550000I0J-200000D01*
G01*
X129975000Y-74950000D01*
G75*
G02*
X129775000Y-75150000I-200000J0D01*
G01*
G37*
G04 #@! TD.AperFunction*
G04 #@! TA.AperFunction,SMDPad,CuDef*
G36*
G01*
X129775000Y-76800000D02*
X129225000Y-76800000D01*
G75*
G02*
X129025000Y-76600000I0J200000D01*
G01*
X129025000Y-76200000D01*
G75*
G02*
X129225000Y-76000000I200000J0D01*
G01*
X129775000Y-76000000D01*
G75*
G02*
X129975000Y-76200000I0J-200000D01*
G01*
X129975000Y-76600000D01*
G75*
G02*
X129775000Y-76800000I-200000J0D01*
G01*
G37*
G04 #@! TD.AperFunction*
G04 #@! TA.AperFunction,SMDPad,CuDef*
G36*
G01*
X122575000Y-87725000D02*
X122575000Y-88275000D01*
G75*
G02*
X122375000Y-88475000I-200000J0D01*
G01*
X121975000Y-88475000D01*
G75*
G02*
X121775000Y-88275000I0J200000D01*
G01*
X121775000Y-87725000D01*
G75*
G02*
X121975000Y-87525000I200000J0D01*
G01*
X122375000Y-87525000D01*
G75*
G02*
X122575000Y-87725000I0J-200000D01*
G01*
G37*
G04 #@! TD.AperFunction*
G04 #@! TA.AperFunction,SMDPad,CuDef*
G36*
G01*
X124225000Y-87725000D02*
X124225000Y-88275000D01*
G75*
G02*
X124025000Y-88475000I-200000J0D01*
G01*
X123625000Y-88475000D01*
G75*
G02*
X123425000Y-88275000I0J200000D01*
G01*
X123425000Y-87725000D01*
G75*
G02*
X123625000Y-87525000I200000J0D01*
G01*
X124025000Y-87525000D01*
G75*
G02*
X124225000Y-87725000I0J-200000D01*
G01*
G37*
G04 #@! TD.AperFunction*
D16*
X121500000Y-92170000D03*
X121500000Y-94710000D03*
D17*
X121500000Y-97250000D03*
D16*
X122250000Y-72670000D03*
X122250000Y-75210000D03*
D17*
X122250000Y-77750000D03*
D16*
X141660000Y-71750000D03*
X139120000Y-71750000D03*
X136580000Y-71750000D03*
X134040000Y-71750000D03*
D17*
X131500000Y-71750000D03*
G04 #@! TA.AperFunction,SMDPad,CuDef*
G36*
G01*
X126012500Y-89350000D02*
X126487500Y-89350000D01*
G75*
G02*
X126725000Y-89587500I0J-237500D01*
G01*
X126725000Y-90162500D01*
G75*
G02*
X126487500Y-90400000I-237500J0D01*
G01*
X126012500Y-90400000D01*
G75*
G02*
X125775000Y-90162500I0J237500D01*
G01*
X125775000Y-89587500D01*
G75*
G02*
X126012500Y-89350000I237500J0D01*
G01*
G37*
G04 #@! TD.AperFunction*
G04 #@! TA.AperFunction,SMDPad,CuDef*
G36*
G01*
X126012500Y-87600000D02*
X126487500Y-87600000D01*
G75*
G02*
X126725000Y-87837500I0J-237500D01*
G01*
X126725000Y-88412500D01*
G75*
G02*
X126487500Y-88650000I-237500J0D01*
G01*
X126012500Y-88650000D01*
G75*
G02*
X125775000Y-88412500I0J237500D01*
G01*
X125775000Y-87837500D01*
G75*
G02*
X126012500Y-87600000I237500J0D01*
G01*
G37*
G04 #@! TD.AperFunction*
G04 #@! TA.AperFunction,SMDPad,CuDef*
G36*
G01*
X145237500Y-85925000D02*
X144762500Y-85925000D01*
G75*
G02*
X144525000Y-85687500I0J237500D01*
G01*
X144525000Y-85087500D01*
G75*
G02*
X144762500Y-84850000I237500J0D01*
G01*
X145237500Y-84850000D01*
G75*
G02*
X145475000Y-85087500I0J-237500D01*
G01*
X145475000Y-85687500D01*
G75*
G02*
X145237500Y-85925000I-237500J0D01*
G01*
G37*
G04 #@! TD.AperFunction*
G04 #@! TA.AperFunction,SMDPad,CuDef*
G36*
G01*
X145237500Y-87650000D02*
X144762500Y-87650000D01*
G75*
G02*
X144525000Y-87412500I0J237500D01*
G01*
X144525000Y-86812500D01*
G75*
G02*
X144762500Y-86575000I237500J0D01*
G01*
X145237500Y-86575000D01*
G75*
G02*
X145475000Y-86812500I0J-237500D01*
G01*
X145475000Y-87412500D01*
G75*
G02*
X145237500Y-87650000I-237500J0D01*
G01*
G37*
G04 #@! TD.AperFunction*
G04 #@! TA.AperFunction,SMDPad,CuDef*
G36*
G01*
X136349997Y-97400000D02*
X137650003Y-97400000D01*
G75*
G02*
X137900000Y-97649997I0J-249997D01*
G01*
X137900000Y-98475003D01*
G75*
G02*
X137650003Y-98725000I-249997J0D01*
G01*
X136349997Y-98725000D01*
G75*
G02*
X136100000Y-98475003I0J249997D01*
G01*
X136100000Y-97649997D01*
G75*
G02*
X136349997Y-97400000I249997J0D01*
G01*
G37*
G04 #@! TD.AperFunction*
G04 #@! TA.AperFunction,SMDPad,CuDef*
G36*
G01*
X136349997Y-94275000D02*
X137650003Y-94275000D01*
G75*
G02*
X137900000Y-94524997I0J-249997D01*
G01*
X137900000Y-95350003D01*
G75*
G02*
X137650003Y-95600000I-249997J0D01*
G01*
X136349997Y-95600000D01*
G75*
G02*
X136100000Y-95350003I0J249997D01*
G01*
X136100000Y-94524997D01*
G75*
G02*
X136349997Y-94275000I249997J0D01*
G01*
G37*
G04 #@! TD.AperFunction*
D18*
X121000000Y-88000000D03*
X139575000Y-87175000D03*
X139250000Y-98000000D03*
X136000000Y-89250000D03*
X127000000Y-86250000D03*
X126000000Y-80750000D03*
X137750000Y-83500000D03*
X129125000Y-77625000D03*
X138500000Y-77750000D03*
X136250000Y-77500000D03*
D19*
X144937500Y-87175000D02*
X145000000Y-87112500D01*
X141650000Y-87175000D02*
X144937500Y-87175000D01*
X132350000Y-84635000D02*
X135385000Y-84635000D01*
X137925000Y-87175000D02*
X139575000Y-87175000D01*
X135385000Y-84635000D02*
X137925000Y-87175000D01*
X139575000Y-87175000D02*
X141650000Y-87175000D01*
X144937500Y-98062500D02*
X146000000Y-97000000D01*
D20*
X153830000Y-91540000D02*
X153830000Y-73500000D01*
D19*
X139187500Y-98062500D02*
X139250000Y-98000000D01*
X137000000Y-98062500D02*
X139187500Y-98062500D01*
X122175000Y-88000000D02*
X121000000Y-88000000D01*
X137000000Y-94937500D02*
X148062500Y-94937500D01*
X150125000Y-97000000D02*
X151400000Y-97000000D01*
X148062500Y-94937500D02*
X150125000Y-97000000D01*
X151400000Y-73610000D02*
X151290000Y-73500000D01*
D20*
X151400000Y-97000000D02*
X151400000Y-73610000D01*
D19*
X137000000Y-94937500D02*
X137000000Y-90250000D01*
X137000000Y-90250000D02*
X136000000Y-89250000D01*
X127000000Y-83950000D02*
X126550000Y-83500000D01*
X127000000Y-86250000D02*
X127000000Y-83950000D01*
X126410000Y-89715000D02*
X126250000Y-89875000D01*
X132350000Y-89715000D02*
X126410000Y-89715000D01*
X126125000Y-88000000D02*
X126250000Y-88125000D01*
X123825000Y-88000000D02*
X126125000Y-88000000D01*
X141660000Y-71750000D02*
X144750000Y-74840000D01*
X144750000Y-74840000D02*
X144750000Y-76250000D01*
X143985000Y-77015000D02*
X141650000Y-77015000D01*
X144750000Y-76250000D02*
X143985000Y-77015000D01*
X139120000Y-71750000D02*
X139120000Y-73120000D01*
X141650000Y-75650000D02*
X141650000Y-75745000D01*
X139120000Y-73120000D02*
X141650000Y-75650000D01*
X129500000Y-73750000D02*
X131500000Y-71750000D01*
X129500000Y-74750000D02*
X129500000Y-73750000D01*
X131355000Y-74750000D02*
X132350000Y-75745000D01*
X129500000Y-74750000D02*
X131355000Y-74750000D01*
X132350000Y-88445000D02*
X131695000Y-88445000D01*
X131695000Y-88445000D02*
X129000000Y-85750000D01*
X129000000Y-85750000D02*
X129000000Y-79500000D01*
X129000000Y-79500000D02*
X122250000Y-72750000D01*
X122250000Y-75210000D02*
X122960000Y-75210000D01*
X122960000Y-75210000D02*
X124500000Y-76750000D01*
X124500000Y-76750000D02*
X124500000Y-81250000D01*
X123950000Y-81800000D02*
X123950000Y-83500000D01*
X124500000Y-81250000D02*
X123950000Y-81800000D01*
X132350000Y-90985000D02*
X131015000Y-90985000D01*
X131015000Y-90985000D02*
X129750000Y-92250000D01*
X121580000Y-92250000D02*
X121500000Y-92170000D01*
X129750000Y-92250000D02*
X121580000Y-92250000D01*
X130745000Y-92255000D02*
X125750000Y-97250000D01*
X132350000Y-92255000D02*
X130745000Y-92255000D01*
X125750000Y-97250000D02*
X121500000Y-97250000D01*
X141650000Y-85905000D02*
X143345000Y-85905000D01*
X143862500Y-85387500D02*
X145000000Y-85387500D01*
X143345000Y-85905000D02*
X143862500Y-85387500D01*
X125250000Y-83500000D02*
X125250000Y-81500000D01*
X125250000Y-81500000D02*
X126000000Y-80750000D01*
X140155000Y-85905000D02*
X141650000Y-85905000D01*
X137750000Y-83500000D02*
X140155000Y-85905000D01*
X129125000Y-76775000D02*
X129500000Y-76400000D01*
X129125000Y-77625000D02*
X129125000Y-76775000D01*
X132350000Y-79555000D02*
X136695000Y-79555000D01*
X136695000Y-79555000D02*
X138500000Y-77750000D01*
X132350000Y-78285000D02*
X135465000Y-78285000D01*
X135465000Y-78285000D02*
X136250000Y-77500000D01*
X141650000Y-82095000D02*
X144095000Y-82095000D01*
X145790000Y-83790000D02*
X148750000Y-83790000D01*
X144095000Y-82095000D02*
X145790000Y-83790000D01*
X148325000Y-80825000D02*
X148750000Y-81250000D01*
X141650000Y-80825000D02*
X148325000Y-80825000D01*
X141650000Y-90985000D02*
X145735000Y-90985000D01*
X146290000Y-91540000D02*
X148750000Y-91540000D01*
X145735000Y-90985000D02*
X146290000Y-91540000D01*
X141650000Y-89715000D02*
X146035000Y-89715000D01*
X146750000Y-89000000D02*
X148750000Y-89000000D01*
X146035000Y-89715000D02*
X146750000Y-89000000D01*
M02*
