G04 #@! TF.GenerationSoftware,KiCad,Pcbnew,(5.1.8)-1*
G04 #@! TF.CreationDate,2021-02-16T23:17:12-07:00*
G04 #@! TF.ProjectId,LED-Controller,4c45442d-436f-46e7-9472-6f6c6c65722e,rev?*
G04 #@! TF.SameCoordinates,Original*
G04 #@! TF.FileFunction,Soldermask,Top*
G04 #@! TF.FilePolarity,Negative*
%FSLAX46Y46*%
G04 Gerber Fmt 4.6, Leading zero omitted, Abs format (unit mm)*
G04 Created by KiCad (PCBNEW (5.1.8)-1) date 2021-02-16 23:17:12*
%MOMM*%
%LPD*%
G01*
G04 APERTURE LIST*
%ADD10C,1.752000*%
%ADD11C,2.852000*%
%ADD12C,0.100000*%
%ADD13O,1.802000X1.802000*%
G04 APERTURE END LIST*
D10*
X153830000Y-91540000D03*
X151290000Y-91540000D03*
X148750000Y-91540000D03*
X153830000Y-89000000D03*
X151290000Y-89000000D03*
G36*
G01*
X147925000Y-88124000D02*
X149575000Y-88124000D01*
G75*
G02*
X149626000Y-88175000I0J-51000D01*
G01*
X149626000Y-89825000D01*
G75*
G02*
X149575000Y-89876000I-51000J0D01*
G01*
X147925000Y-89876000D01*
G75*
G02*
X147874000Y-89825000I0J51000D01*
G01*
X147874000Y-88175000D01*
G75*
G02*
X147925000Y-88124000I51000J0D01*
G01*
G37*
X153830000Y-83790000D03*
X151290000Y-83790000D03*
X148750000Y-83790000D03*
X153830000Y-81250000D03*
X151290000Y-81250000D03*
G36*
G01*
X147925000Y-80374000D02*
X149575000Y-80374000D01*
G75*
G02*
X149626000Y-80425000I0J-51000D01*
G01*
X149626000Y-82075000D01*
G75*
G02*
X149575000Y-82126000I-51000J0D01*
G01*
X147925000Y-82126000D01*
G75*
G02*
X147874000Y-82075000I0J51000D01*
G01*
X147874000Y-80425000D01*
G75*
G02*
X147925000Y-80374000I51000J0D01*
G01*
G37*
X153830000Y-76040000D03*
X151290000Y-76040000D03*
X148750000Y-76040000D03*
X153830000Y-73500000D03*
X151290000Y-73500000D03*
G36*
G01*
X147925000Y-72624000D02*
X149575000Y-72624000D01*
G75*
G02*
X149626000Y-72675000I0J-51000D01*
G01*
X149626000Y-74325000D01*
G75*
G02*
X149575000Y-74376000I-51000J0D01*
G01*
X147925000Y-74376000D01*
G75*
G02*
X147874000Y-74325000I0J51000D01*
G01*
X147874000Y-72675000D01*
G75*
G02*
X147925000Y-72624000I51000J0D01*
G01*
G37*
D11*
X151400000Y-97000000D03*
G36*
G01*
X144574000Y-98166730D02*
X144574000Y-95833270D01*
G75*
G02*
X144833270Y-95574000I259270J0D01*
G01*
X147166730Y-95574000D01*
G75*
G02*
X147426000Y-95833270I0J-259270D01*
G01*
X147426000Y-98166730D01*
G75*
G02*
X147166730Y-98426000I-259270J0D01*
G01*
X144833270Y-98426000D01*
G75*
G02*
X144574000Y-98166730I0J259270D01*
G01*
G37*
D12*
G36*
X125990050Y-84300020D02*
G01*
X125980483Y-84297118D01*
X125971666Y-84292405D01*
X125963938Y-84286062D01*
X125957595Y-84278334D01*
X125952882Y-84269517D01*
X125949980Y-84259950D01*
X125949000Y-84250000D01*
X125949000Y-82750000D01*
X125949980Y-82740050D01*
X125952882Y-82730483D01*
X125957595Y-82721666D01*
X125963938Y-82713938D01*
X125971666Y-82707595D01*
X125980483Y-82702882D01*
X125990050Y-82699980D01*
X126000000Y-82699000D01*
X126550000Y-82699000D01*
X126556112Y-82699602D01*
X126574534Y-82699602D01*
X126579533Y-82699848D01*
X126628364Y-82704658D01*
X126633314Y-82705392D01*
X126681439Y-82714964D01*
X126686295Y-82716180D01*
X126733250Y-82730424D01*
X126737961Y-82732110D01*
X126783294Y-82750887D01*
X126787820Y-82753027D01*
X126831093Y-82776158D01*
X126835384Y-82778731D01*
X126876183Y-82805991D01*
X126880204Y-82808973D01*
X126918133Y-82840101D01*
X126921841Y-82843462D01*
X126956538Y-82878159D01*
X126959899Y-82881867D01*
X126991027Y-82919796D01*
X126994009Y-82923817D01*
X127021269Y-82964616D01*
X127023842Y-82968907D01*
X127046973Y-83012180D01*
X127049113Y-83016706D01*
X127067890Y-83062039D01*
X127069576Y-83066750D01*
X127083820Y-83113705D01*
X127085036Y-83118561D01*
X127094608Y-83166686D01*
X127095342Y-83171636D01*
X127100152Y-83220467D01*
X127100398Y-83225466D01*
X127100398Y-83243888D01*
X127101000Y-83250000D01*
X127101000Y-83750000D01*
X127100398Y-83756112D01*
X127100398Y-83774534D01*
X127100152Y-83779533D01*
X127095342Y-83828364D01*
X127094608Y-83833314D01*
X127085036Y-83881439D01*
X127083820Y-83886295D01*
X127069576Y-83933250D01*
X127067890Y-83937961D01*
X127049113Y-83983294D01*
X127046973Y-83987820D01*
X127023842Y-84031093D01*
X127021269Y-84035384D01*
X126994009Y-84076183D01*
X126991027Y-84080204D01*
X126959899Y-84118133D01*
X126956538Y-84121841D01*
X126921841Y-84156538D01*
X126918133Y-84159899D01*
X126880204Y-84191027D01*
X126876183Y-84194009D01*
X126835384Y-84221269D01*
X126831093Y-84223842D01*
X126787820Y-84246973D01*
X126783294Y-84249113D01*
X126737961Y-84267890D01*
X126733250Y-84269576D01*
X126686295Y-84283820D01*
X126681439Y-84285036D01*
X126633314Y-84294608D01*
X126628364Y-84295342D01*
X126579533Y-84300152D01*
X126574534Y-84300398D01*
X126556112Y-84300398D01*
X126550000Y-84301000D01*
X126000000Y-84301000D01*
X125990050Y-84300020D01*
G37*
G36*
G01*
X125801000Y-82750000D02*
X125801000Y-84250000D01*
G75*
G02*
X125750000Y-84301000I-51000J0D01*
G01*
X124750000Y-84301000D01*
G75*
G02*
X124699000Y-84250000I0J51000D01*
G01*
X124699000Y-82750000D01*
G75*
G02*
X124750000Y-82699000I51000J0D01*
G01*
X125750000Y-82699000D01*
G75*
G02*
X125801000Y-82750000I0J-51000D01*
G01*
G37*
G36*
X123943888Y-84300398D02*
G01*
X123925466Y-84300398D01*
X123920467Y-84300152D01*
X123871636Y-84295342D01*
X123866686Y-84294608D01*
X123818561Y-84285036D01*
X123813705Y-84283820D01*
X123766750Y-84269576D01*
X123762039Y-84267890D01*
X123716706Y-84249113D01*
X123712180Y-84246973D01*
X123668907Y-84223842D01*
X123664616Y-84221269D01*
X123623817Y-84194009D01*
X123619796Y-84191027D01*
X123581867Y-84159899D01*
X123578159Y-84156538D01*
X123543462Y-84121841D01*
X123540101Y-84118133D01*
X123508973Y-84080204D01*
X123505991Y-84076183D01*
X123478731Y-84035384D01*
X123476158Y-84031093D01*
X123453027Y-83987820D01*
X123450887Y-83983294D01*
X123432110Y-83937961D01*
X123430424Y-83933250D01*
X123416180Y-83886295D01*
X123414964Y-83881439D01*
X123405392Y-83833314D01*
X123404658Y-83828364D01*
X123399848Y-83779533D01*
X123399602Y-83774534D01*
X123399602Y-83756112D01*
X123399000Y-83750000D01*
X123399000Y-83250000D01*
X123399602Y-83243888D01*
X123399602Y-83225466D01*
X123399848Y-83220467D01*
X123404658Y-83171636D01*
X123405392Y-83166686D01*
X123414964Y-83118561D01*
X123416180Y-83113705D01*
X123430424Y-83066750D01*
X123432110Y-83062039D01*
X123450887Y-83016706D01*
X123453027Y-83012180D01*
X123476158Y-82968907D01*
X123478731Y-82964616D01*
X123505991Y-82923817D01*
X123508973Y-82919796D01*
X123540101Y-82881867D01*
X123543462Y-82878159D01*
X123578159Y-82843462D01*
X123581867Y-82840101D01*
X123619796Y-82808973D01*
X123623817Y-82805991D01*
X123664616Y-82778731D01*
X123668907Y-82776158D01*
X123712180Y-82753027D01*
X123716706Y-82750887D01*
X123762039Y-82732110D01*
X123766750Y-82730424D01*
X123813705Y-82716180D01*
X123818561Y-82714964D01*
X123866686Y-82705392D01*
X123871636Y-82704658D01*
X123920467Y-82699848D01*
X123925466Y-82699602D01*
X123943888Y-82699602D01*
X123950000Y-82699000D01*
X124500000Y-82699000D01*
X124509950Y-82699980D01*
X124519517Y-82702882D01*
X124528334Y-82707595D01*
X124536062Y-82713938D01*
X124542405Y-82721666D01*
X124547118Y-82730483D01*
X124550020Y-82740050D01*
X124551000Y-82750000D01*
X124551000Y-84250000D01*
X124550020Y-84259950D01*
X124547118Y-84269517D01*
X124542405Y-84278334D01*
X124536062Y-84286062D01*
X124528334Y-84292405D01*
X124519517Y-84297118D01*
X124509950Y-84300020D01*
X124500000Y-84301000D01*
X123950000Y-84301000D01*
X123943888Y-84300398D01*
G37*
G36*
G01*
X140574000Y-75920500D02*
X140574000Y-75569500D01*
G75*
G02*
X140749500Y-75394000I175500J0D01*
G01*
X142550500Y-75394000D01*
G75*
G02*
X142726000Y-75569500I0J-175500D01*
G01*
X142726000Y-75920500D01*
G75*
G02*
X142550500Y-76096000I-175500J0D01*
G01*
X140749500Y-76096000D01*
G75*
G02*
X140574000Y-75920500I0J175500D01*
G01*
G37*
G36*
G01*
X140574000Y-77190500D02*
X140574000Y-76839500D01*
G75*
G02*
X140749500Y-76664000I175500J0D01*
G01*
X142550500Y-76664000D01*
G75*
G02*
X142726000Y-76839500I0J-175500D01*
G01*
X142726000Y-77190500D01*
G75*
G02*
X142550500Y-77366000I-175500J0D01*
G01*
X140749500Y-77366000D01*
G75*
G02*
X140574000Y-77190500I0J175500D01*
G01*
G37*
G36*
G01*
X140574000Y-78460500D02*
X140574000Y-78109500D01*
G75*
G02*
X140749500Y-77934000I175500J0D01*
G01*
X142550500Y-77934000D01*
G75*
G02*
X142726000Y-78109500I0J-175500D01*
G01*
X142726000Y-78460500D01*
G75*
G02*
X142550500Y-78636000I-175500J0D01*
G01*
X140749500Y-78636000D01*
G75*
G02*
X140574000Y-78460500I0J175500D01*
G01*
G37*
G36*
G01*
X140574000Y-79730500D02*
X140574000Y-79379500D01*
G75*
G02*
X140749500Y-79204000I175500J0D01*
G01*
X142550500Y-79204000D01*
G75*
G02*
X142726000Y-79379500I0J-175500D01*
G01*
X142726000Y-79730500D01*
G75*
G02*
X142550500Y-79906000I-175500J0D01*
G01*
X140749500Y-79906000D01*
G75*
G02*
X140574000Y-79730500I0J175500D01*
G01*
G37*
G36*
G01*
X140574000Y-81000500D02*
X140574000Y-80649500D01*
G75*
G02*
X140749500Y-80474000I175500J0D01*
G01*
X142550500Y-80474000D01*
G75*
G02*
X142726000Y-80649500I0J-175500D01*
G01*
X142726000Y-81000500D01*
G75*
G02*
X142550500Y-81176000I-175500J0D01*
G01*
X140749500Y-81176000D01*
G75*
G02*
X140574000Y-81000500I0J175500D01*
G01*
G37*
G36*
G01*
X140574000Y-82270500D02*
X140574000Y-81919500D01*
G75*
G02*
X140749500Y-81744000I175500J0D01*
G01*
X142550500Y-81744000D01*
G75*
G02*
X142726000Y-81919500I0J-175500D01*
G01*
X142726000Y-82270500D01*
G75*
G02*
X142550500Y-82446000I-175500J0D01*
G01*
X140749500Y-82446000D01*
G75*
G02*
X140574000Y-82270500I0J175500D01*
G01*
G37*
G36*
G01*
X140574000Y-83540500D02*
X140574000Y-83189500D01*
G75*
G02*
X140749500Y-83014000I175500J0D01*
G01*
X142550500Y-83014000D01*
G75*
G02*
X142726000Y-83189500I0J-175500D01*
G01*
X142726000Y-83540500D01*
G75*
G02*
X142550500Y-83716000I-175500J0D01*
G01*
X140749500Y-83716000D01*
G75*
G02*
X140574000Y-83540500I0J175500D01*
G01*
G37*
G36*
G01*
X140574000Y-84810500D02*
X140574000Y-84459500D01*
G75*
G02*
X140749500Y-84284000I175500J0D01*
G01*
X142550500Y-84284000D01*
G75*
G02*
X142726000Y-84459500I0J-175500D01*
G01*
X142726000Y-84810500D01*
G75*
G02*
X142550500Y-84986000I-175500J0D01*
G01*
X140749500Y-84986000D01*
G75*
G02*
X140574000Y-84810500I0J175500D01*
G01*
G37*
G36*
G01*
X140574000Y-86080500D02*
X140574000Y-85729500D01*
G75*
G02*
X140749500Y-85554000I175500J0D01*
G01*
X142550500Y-85554000D01*
G75*
G02*
X142726000Y-85729500I0J-175500D01*
G01*
X142726000Y-86080500D01*
G75*
G02*
X142550500Y-86256000I-175500J0D01*
G01*
X140749500Y-86256000D01*
G75*
G02*
X140574000Y-86080500I0J175500D01*
G01*
G37*
G36*
G01*
X140574000Y-87350500D02*
X140574000Y-86999500D01*
G75*
G02*
X140749500Y-86824000I175500J0D01*
G01*
X142550500Y-86824000D01*
G75*
G02*
X142726000Y-86999500I0J-175500D01*
G01*
X142726000Y-87350500D01*
G75*
G02*
X142550500Y-87526000I-175500J0D01*
G01*
X140749500Y-87526000D01*
G75*
G02*
X140574000Y-87350500I0J175500D01*
G01*
G37*
G36*
G01*
X140574000Y-88620500D02*
X140574000Y-88269500D01*
G75*
G02*
X140749500Y-88094000I175500J0D01*
G01*
X142550500Y-88094000D01*
G75*
G02*
X142726000Y-88269500I0J-175500D01*
G01*
X142726000Y-88620500D01*
G75*
G02*
X142550500Y-88796000I-175500J0D01*
G01*
X140749500Y-88796000D01*
G75*
G02*
X140574000Y-88620500I0J175500D01*
G01*
G37*
G36*
G01*
X140574000Y-89890500D02*
X140574000Y-89539500D01*
G75*
G02*
X140749500Y-89364000I175500J0D01*
G01*
X142550500Y-89364000D01*
G75*
G02*
X142726000Y-89539500I0J-175500D01*
G01*
X142726000Y-89890500D01*
G75*
G02*
X142550500Y-90066000I-175500J0D01*
G01*
X140749500Y-90066000D01*
G75*
G02*
X140574000Y-89890500I0J175500D01*
G01*
G37*
G36*
G01*
X140574000Y-91160500D02*
X140574000Y-90809500D01*
G75*
G02*
X140749500Y-90634000I175500J0D01*
G01*
X142550500Y-90634000D01*
G75*
G02*
X142726000Y-90809500I0J-175500D01*
G01*
X142726000Y-91160500D01*
G75*
G02*
X142550500Y-91336000I-175500J0D01*
G01*
X140749500Y-91336000D01*
G75*
G02*
X140574000Y-91160500I0J175500D01*
G01*
G37*
G36*
G01*
X140574000Y-92430500D02*
X140574000Y-92079500D01*
G75*
G02*
X140749500Y-91904000I175500J0D01*
G01*
X142550500Y-91904000D01*
G75*
G02*
X142726000Y-92079500I0J-175500D01*
G01*
X142726000Y-92430500D01*
G75*
G02*
X142550500Y-92606000I-175500J0D01*
G01*
X140749500Y-92606000D01*
G75*
G02*
X140574000Y-92430500I0J175500D01*
G01*
G37*
G36*
G01*
X131274000Y-92430500D02*
X131274000Y-92079500D01*
G75*
G02*
X131449500Y-91904000I175500J0D01*
G01*
X133250500Y-91904000D01*
G75*
G02*
X133426000Y-92079500I0J-175500D01*
G01*
X133426000Y-92430500D01*
G75*
G02*
X133250500Y-92606000I-175500J0D01*
G01*
X131449500Y-92606000D01*
G75*
G02*
X131274000Y-92430500I0J175500D01*
G01*
G37*
G36*
G01*
X131274000Y-91160500D02*
X131274000Y-90809500D01*
G75*
G02*
X131449500Y-90634000I175500J0D01*
G01*
X133250500Y-90634000D01*
G75*
G02*
X133426000Y-90809500I0J-175500D01*
G01*
X133426000Y-91160500D01*
G75*
G02*
X133250500Y-91336000I-175500J0D01*
G01*
X131449500Y-91336000D01*
G75*
G02*
X131274000Y-91160500I0J175500D01*
G01*
G37*
G36*
G01*
X131274000Y-89890500D02*
X131274000Y-89539500D01*
G75*
G02*
X131449500Y-89364000I175500J0D01*
G01*
X133250500Y-89364000D01*
G75*
G02*
X133426000Y-89539500I0J-175500D01*
G01*
X133426000Y-89890500D01*
G75*
G02*
X133250500Y-90066000I-175500J0D01*
G01*
X131449500Y-90066000D01*
G75*
G02*
X131274000Y-89890500I0J175500D01*
G01*
G37*
G36*
G01*
X131274000Y-88620500D02*
X131274000Y-88269500D01*
G75*
G02*
X131449500Y-88094000I175500J0D01*
G01*
X133250500Y-88094000D01*
G75*
G02*
X133426000Y-88269500I0J-175500D01*
G01*
X133426000Y-88620500D01*
G75*
G02*
X133250500Y-88796000I-175500J0D01*
G01*
X131449500Y-88796000D01*
G75*
G02*
X131274000Y-88620500I0J175500D01*
G01*
G37*
G36*
G01*
X131274000Y-87350500D02*
X131274000Y-86999500D01*
G75*
G02*
X131449500Y-86824000I175500J0D01*
G01*
X133250500Y-86824000D01*
G75*
G02*
X133426000Y-86999500I0J-175500D01*
G01*
X133426000Y-87350500D01*
G75*
G02*
X133250500Y-87526000I-175500J0D01*
G01*
X131449500Y-87526000D01*
G75*
G02*
X131274000Y-87350500I0J175500D01*
G01*
G37*
G36*
G01*
X131274000Y-86080500D02*
X131274000Y-85729500D01*
G75*
G02*
X131449500Y-85554000I175500J0D01*
G01*
X133250500Y-85554000D01*
G75*
G02*
X133426000Y-85729500I0J-175500D01*
G01*
X133426000Y-86080500D01*
G75*
G02*
X133250500Y-86256000I-175500J0D01*
G01*
X131449500Y-86256000D01*
G75*
G02*
X131274000Y-86080500I0J175500D01*
G01*
G37*
G36*
G01*
X131274000Y-84810500D02*
X131274000Y-84459500D01*
G75*
G02*
X131449500Y-84284000I175500J0D01*
G01*
X133250500Y-84284000D01*
G75*
G02*
X133426000Y-84459500I0J-175500D01*
G01*
X133426000Y-84810500D01*
G75*
G02*
X133250500Y-84986000I-175500J0D01*
G01*
X131449500Y-84986000D01*
G75*
G02*
X131274000Y-84810500I0J175500D01*
G01*
G37*
G36*
G01*
X131274000Y-83540500D02*
X131274000Y-83189500D01*
G75*
G02*
X131449500Y-83014000I175500J0D01*
G01*
X133250500Y-83014000D01*
G75*
G02*
X133426000Y-83189500I0J-175500D01*
G01*
X133426000Y-83540500D01*
G75*
G02*
X133250500Y-83716000I-175500J0D01*
G01*
X131449500Y-83716000D01*
G75*
G02*
X131274000Y-83540500I0J175500D01*
G01*
G37*
G36*
G01*
X131274000Y-82270500D02*
X131274000Y-81919500D01*
G75*
G02*
X131449500Y-81744000I175500J0D01*
G01*
X133250500Y-81744000D01*
G75*
G02*
X133426000Y-81919500I0J-175500D01*
G01*
X133426000Y-82270500D01*
G75*
G02*
X133250500Y-82446000I-175500J0D01*
G01*
X131449500Y-82446000D01*
G75*
G02*
X131274000Y-82270500I0J175500D01*
G01*
G37*
G36*
G01*
X131274000Y-81000500D02*
X131274000Y-80649500D01*
G75*
G02*
X131449500Y-80474000I175500J0D01*
G01*
X133250500Y-80474000D01*
G75*
G02*
X133426000Y-80649500I0J-175500D01*
G01*
X133426000Y-81000500D01*
G75*
G02*
X133250500Y-81176000I-175500J0D01*
G01*
X131449500Y-81176000D01*
G75*
G02*
X131274000Y-81000500I0J175500D01*
G01*
G37*
G36*
G01*
X131274000Y-79730500D02*
X131274000Y-79379500D01*
G75*
G02*
X131449500Y-79204000I175500J0D01*
G01*
X133250500Y-79204000D01*
G75*
G02*
X133426000Y-79379500I0J-175500D01*
G01*
X133426000Y-79730500D01*
G75*
G02*
X133250500Y-79906000I-175500J0D01*
G01*
X131449500Y-79906000D01*
G75*
G02*
X131274000Y-79730500I0J175500D01*
G01*
G37*
G36*
G01*
X131274000Y-78460500D02*
X131274000Y-78109500D01*
G75*
G02*
X131449500Y-77934000I175500J0D01*
G01*
X133250500Y-77934000D01*
G75*
G02*
X133426000Y-78109500I0J-175500D01*
G01*
X133426000Y-78460500D01*
G75*
G02*
X133250500Y-78636000I-175500J0D01*
G01*
X131449500Y-78636000D01*
G75*
G02*
X131274000Y-78460500I0J175500D01*
G01*
G37*
G36*
G01*
X131274000Y-77190500D02*
X131274000Y-76839500D01*
G75*
G02*
X131449500Y-76664000I175500J0D01*
G01*
X133250500Y-76664000D01*
G75*
G02*
X133426000Y-76839500I0J-175500D01*
G01*
X133426000Y-77190500D01*
G75*
G02*
X133250500Y-77366000I-175500J0D01*
G01*
X131449500Y-77366000D01*
G75*
G02*
X131274000Y-77190500I0J175500D01*
G01*
G37*
G36*
G01*
X131274000Y-75920500D02*
X131274000Y-75569500D01*
G75*
G02*
X131449500Y-75394000I175500J0D01*
G01*
X133250500Y-75394000D01*
G75*
G02*
X133426000Y-75569500I0J-175500D01*
G01*
X133426000Y-75920500D01*
G75*
G02*
X133250500Y-76096000I-175500J0D01*
G01*
X131449500Y-76096000D01*
G75*
G02*
X131274000Y-75920500I0J175500D01*
G01*
G37*
G36*
G01*
X129800500Y-75201000D02*
X129199500Y-75201000D01*
G75*
G02*
X128974000Y-74975500I0J225500D01*
G01*
X128974000Y-74524500D01*
G75*
G02*
X129199500Y-74299000I225500J0D01*
G01*
X129800500Y-74299000D01*
G75*
G02*
X130026000Y-74524500I0J-225500D01*
G01*
X130026000Y-74975500D01*
G75*
G02*
X129800500Y-75201000I-225500J0D01*
G01*
G37*
G36*
G01*
X129800500Y-76851000D02*
X129199500Y-76851000D01*
G75*
G02*
X128974000Y-76625500I0J225500D01*
G01*
X128974000Y-76174500D01*
G75*
G02*
X129199500Y-75949000I225500J0D01*
G01*
X129800500Y-75949000D01*
G75*
G02*
X130026000Y-76174500I0J-225500D01*
G01*
X130026000Y-76625500D01*
G75*
G02*
X129800500Y-76851000I-225500J0D01*
G01*
G37*
G36*
G01*
X121626000Y-89199500D02*
X121626000Y-89800500D01*
G75*
G02*
X121400500Y-90026000I-225500J0D01*
G01*
X120949500Y-90026000D01*
G75*
G02*
X120724000Y-89800500I0J225500D01*
G01*
X120724000Y-89199500D01*
G75*
G02*
X120949500Y-88974000I225500J0D01*
G01*
X121400500Y-88974000D01*
G75*
G02*
X121626000Y-89199500I0J-225500D01*
G01*
G37*
G36*
G01*
X123276000Y-89199500D02*
X123276000Y-89800500D01*
G75*
G02*
X123050500Y-90026000I-225500J0D01*
G01*
X122599500Y-90026000D01*
G75*
G02*
X122374000Y-89800500I0J225500D01*
G01*
X122374000Y-89199500D01*
G75*
G02*
X122599500Y-88974000I225500J0D01*
G01*
X123050500Y-88974000D01*
G75*
G02*
X123276000Y-89199500I0J-225500D01*
G01*
G37*
D13*
X123170000Y-96500000D03*
X125710000Y-96500000D03*
G36*
G01*
X127400000Y-95599000D02*
X129100000Y-95599000D01*
G75*
G02*
X129151000Y-95650000I0J-51000D01*
G01*
X129151000Y-97350000D01*
G75*
G02*
X129100000Y-97401000I-51000J0D01*
G01*
X127400000Y-97401000D01*
G75*
G02*
X127349000Y-97350000I0J51000D01*
G01*
X127349000Y-95650000D01*
G75*
G02*
X127400000Y-95599000I51000J0D01*
G01*
G37*
X122250000Y-72670000D03*
X122250000Y-75210000D03*
G36*
G01*
X123151000Y-76900000D02*
X123151000Y-78600000D01*
G75*
G02*
X123100000Y-78651000I-51000J0D01*
G01*
X121400000Y-78651000D01*
G75*
G02*
X121349000Y-78600000I0J51000D01*
G01*
X121349000Y-76900000D01*
G75*
G02*
X121400000Y-76849000I51000J0D01*
G01*
X123100000Y-76849000D01*
G75*
G02*
X123151000Y-76900000I0J-51000D01*
G01*
G37*
X141660000Y-71750000D03*
X139120000Y-71750000D03*
X136580000Y-71750000D03*
X134040000Y-71750000D03*
G36*
G01*
X132350000Y-72651000D02*
X130650000Y-72651000D01*
G75*
G02*
X130599000Y-72600000I0J51000D01*
G01*
X130599000Y-70900000D01*
G75*
G02*
X130650000Y-70849000I51000J0D01*
G01*
X132350000Y-70849000D01*
G75*
G02*
X132401000Y-70900000I0J-51000D01*
G01*
X132401000Y-72600000D01*
G75*
G02*
X132350000Y-72651000I-51000J0D01*
G01*
G37*
G36*
G01*
X125987000Y-90049000D02*
X126513000Y-90049000D01*
G75*
G02*
X126776000Y-90312000I0J-263000D01*
G01*
X126776000Y-90938000D01*
G75*
G02*
X126513000Y-91201000I-263000J0D01*
G01*
X125987000Y-91201000D01*
G75*
G02*
X125724000Y-90938000I0J263000D01*
G01*
X125724000Y-90312000D01*
G75*
G02*
X125987000Y-90049000I263000J0D01*
G01*
G37*
G36*
G01*
X125987000Y-88299000D02*
X126513000Y-88299000D01*
G75*
G02*
X126776000Y-88562000I0J-263000D01*
G01*
X126776000Y-89188000D01*
G75*
G02*
X126513000Y-89451000I-263000J0D01*
G01*
X125987000Y-89451000D01*
G75*
G02*
X125724000Y-89188000I0J263000D01*
G01*
X125724000Y-88562000D01*
G75*
G02*
X125987000Y-88299000I263000J0D01*
G01*
G37*
G36*
G01*
X145263000Y-85976000D02*
X144737000Y-85976000D01*
G75*
G02*
X144474000Y-85713000I0J263000D01*
G01*
X144474000Y-85062000D01*
G75*
G02*
X144737000Y-84799000I263000J0D01*
G01*
X145263000Y-84799000D01*
G75*
G02*
X145526000Y-85062000I0J-263000D01*
G01*
X145526000Y-85713000D01*
G75*
G02*
X145263000Y-85976000I-263000J0D01*
G01*
G37*
G36*
G01*
X145263000Y-87701000D02*
X144737000Y-87701000D01*
G75*
G02*
X144474000Y-87438000I0J263000D01*
G01*
X144474000Y-86787000D01*
G75*
G02*
X144737000Y-86524000I263000J0D01*
G01*
X145263000Y-86524000D01*
G75*
G02*
X145526000Y-86787000I0J-263000D01*
G01*
X145526000Y-87438000D01*
G75*
G02*
X145263000Y-87701000I-263000J0D01*
G01*
G37*
G36*
G01*
X136318243Y-97349000D02*
X137681757Y-97349000D01*
G75*
G02*
X137951000Y-97618243I0J-269243D01*
G01*
X137951000Y-98506757D01*
G75*
G02*
X137681757Y-98776000I-269243J0D01*
G01*
X136318243Y-98776000D01*
G75*
G02*
X136049000Y-98506757I0J269243D01*
G01*
X136049000Y-97618243D01*
G75*
G02*
X136318243Y-97349000I269243J0D01*
G01*
G37*
G36*
G01*
X136318243Y-94224000D02*
X137681757Y-94224000D01*
G75*
G02*
X137951000Y-94493243I0J-269243D01*
G01*
X137951000Y-95381757D01*
G75*
G02*
X137681757Y-95651000I-269243J0D01*
G01*
X136318243Y-95651000D01*
G75*
G02*
X136049000Y-95381757I0J269243D01*
G01*
X136049000Y-94493243D01*
G75*
G02*
X136318243Y-94224000I269243J0D01*
G01*
G37*
D12*
G36*
X144575990Y-98166534D02*
G01*
X144580952Y-98216916D01*
X144595593Y-98265179D01*
X144619366Y-98309657D01*
X144651359Y-98348641D01*
X144690343Y-98380634D01*
X144734821Y-98404407D01*
X144783084Y-98419048D01*
X144833466Y-98424010D01*
X144835092Y-98425175D01*
X144834896Y-98427165D01*
X144833270Y-98428000D01*
X144737136Y-98428000D01*
X144736940Y-98427990D01*
X144700292Y-98424381D01*
X144699907Y-98424305D01*
X144670567Y-98415404D01*
X144670205Y-98415254D01*
X144643169Y-98400803D01*
X144642843Y-98400585D01*
X144619142Y-98381135D01*
X144618865Y-98380858D01*
X144599415Y-98357157D01*
X144599197Y-98356831D01*
X144584746Y-98329795D01*
X144584596Y-98329433D01*
X144575695Y-98300093D01*
X144575619Y-98299708D01*
X144572010Y-98263060D01*
X144572000Y-98262864D01*
X144572000Y-98166730D01*
X144573000Y-98164998D01*
X144575000Y-98164998D01*
X144575990Y-98166534D01*
G37*
G36*
X147427165Y-98165104D02*
G01*
X147428000Y-98166730D01*
X147428000Y-98262864D01*
X147427990Y-98263060D01*
X147424381Y-98299708D01*
X147424305Y-98300093D01*
X147415404Y-98329433D01*
X147415254Y-98329795D01*
X147400803Y-98356831D01*
X147400585Y-98357157D01*
X147381135Y-98380858D01*
X147380858Y-98381135D01*
X147357157Y-98400585D01*
X147356831Y-98400803D01*
X147329795Y-98415254D01*
X147329433Y-98415404D01*
X147300093Y-98424305D01*
X147299708Y-98424381D01*
X147263060Y-98427990D01*
X147262864Y-98428000D01*
X147166730Y-98428000D01*
X147164998Y-98427000D01*
X147164998Y-98425000D01*
X147166534Y-98424010D01*
X147216916Y-98419048D01*
X147265179Y-98404407D01*
X147309657Y-98380634D01*
X147348641Y-98348641D01*
X147380634Y-98309657D01*
X147404407Y-98265179D01*
X147419048Y-98216916D01*
X147424010Y-98166534D01*
X147425175Y-98164908D01*
X147427165Y-98165104D01*
G37*
G36*
X144835002Y-95573000D02*
G01*
X144835002Y-95575000D01*
X144833466Y-95575990D01*
X144783084Y-95580952D01*
X144734821Y-95595593D01*
X144690343Y-95619366D01*
X144651359Y-95651359D01*
X144619366Y-95690343D01*
X144595593Y-95734821D01*
X144580952Y-95783084D01*
X144575990Y-95833466D01*
X144574825Y-95835092D01*
X144572835Y-95834896D01*
X144572000Y-95833270D01*
X144572000Y-95737136D01*
X144572010Y-95736940D01*
X144575619Y-95700292D01*
X144575695Y-95699907D01*
X144584596Y-95670567D01*
X144584746Y-95670205D01*
X144599197Y-95643169D01*
X144599415Y-95642843D01*
X144618865Y-95619142D01*
X144619142Y-95618865D01*
X144642843Y-95599415D01*
X144643169Y-95599197D01*
X144670205Y-95584746D01*
X144670567Y-95584596D01*
X144699907Y-95575695D01*
X144700292Y-95575619D01*
X144736940Y-95572010D01*
X144737136Y-95572000D01*
X144833270Y-95572000D01*
X144835002Y-95573000D01*
G37*
G36*
X147263060Y-95572010D02*
G01*
X147299708Y-95575619D01*
X147300093Y-95575695D01*
X147329433Y-95584596D01*
X147329795Y-95584746D01*
X147356831Y-95599197D01*
X147357157Y-95599415D01*
X147380858Y-95618865D01*
X147381135Y-95619142D01*
X147400585Y-95642843D01*
X147400803Y-95643169D01*
X147415254Y-95670205D01*
X147415404Y-95670567D01*
X147424305Y-95699907D01*
X147424381Y-95700292D01*
X147427990Y-95736940D01*
X147428000Y-95737136D01*
X147428000Y-95833270D01*
X147427000Y-95835002D01*
X147425000Y-95835002D01*
X147424010Y-95833466D01*
X147419048Y-95783084D01*
X147404407Y-95734821D01*
X147380634Y-95690343D01*
X147348641Y-95651359D01*
X147309657Y-95619366D01*
X147265179Y-95595593D01*
X147216916Y-95580952D01*
X147166534Y-95575990D01*
X147164908Y-95574825D01*
X147165104Y-95572835D01*
X147166730Y-95572000D01*
X147262864Y-95572000D01*
X147263060Y-95572010D01*
G37*
G36*
X124700732Y-82698000D02*
G01*
X124701000Y-82699000D01*
X124701000Y-84301000D01*
X124700000Y-84302732D01*
X124699000Y-84303000D01*
X124635748Y-84303000D01*
X124634805Y-84302764D01*
X124621067Y-84295421D01*
X124597992Y-84288421D01*
X124574001Y-84286058D01*
X124550010Y-84288421D01*
X124526746Y-84295478D01*
X124524798Y-84295024D01*
X124524217Y-84293110D01*
X124525222Y-84291800D01*
X124527218Y-84290733D01*
X124534641Y-84284641D01*
X124540734Y-84277218D01*
X124545261Y-84268748D01*
X124548050Y-84259555D01*
X124549000Y-84249906D01*
X124549000Y-82750094D01*
X124548050Y-82740445D01*
X124545261Y-82731252D01*
X124540734Y-82722782D01*
X124534641Y-82715359D01*
X124527218Y-82709266D01*
X124521293Y-82706100D01*
X124520237Y-82704402D01*
X124521180Y-82702638D01*
X124522816Y-82702422D01*
X124524433Y-82702912D01*
X124524618Y-82702978D01*
X124538297Y-82708644D01*
X124561947Y-82713349D01*
X124586054Y-82713349D01*
X124609704Y-82708645D01*
X124631978Y-82699419D01*
X124635094Y-82697337D01*
X124636205Y-82697000D01*
X124699000Y-82697000D01*
X124700732Y-82698000D01*
G37*
G36*
X125865195Y-82697236D02*
G01*
X125878933Y-82704579D01*
X125902008Y-82711579D01*
X125925999Y-82713942D01*
X125949990Y-82711579D01*
X125973253Y-82704522D01*
X125975201Y-82704976D01*
X125975782Y-82706890D01*
X125974777Y-82708200D01*
X125972782Y-82709266D01*
X125965359Y-82715359D01*
X125959266Y-82722782D01*
X125954739Y-82731252D01*
X125951950Y-82740445D01*
X125951000Y-82750094D01*
X125951000Y-84249906D01*
X125951950Y-84259555D01*
X125954739Y-84268748D01*
X125959266Y-84277218D01*
X125965359Y-84284641D01*
X125972782Y-84290734D01*
X125978707Y-84293900D01*
X125979763Y-84295598D01*
X125978820Y-84297362D01*
X125977184Y-84297578D01*
X125975567Y-84297088D01*
X125975382Y-84297022D01*
X125961703Y-84291356D01*
X125938053Y-84286651D01*
X125913946Y-84286651D01*
X125890296Y-84291355D01*
X125868022Y-84300581D01*
X125864906Y-84302663D01*
X125863795Y-84303000D01*
X125801000Y-84303000D01*
X125799268Y-84302000D01*
X125799000Y-84301000D01*
X125799000Y-82699000D01*
X125800000Y-82697268D01*
X125801000Y-82697000D01*
X125864252Y-82697000D01*
X125865195Y-82697236D01*
G37*
M02*
