G04 #@! TF.GenerationSoftware,KiCad,Pcbnew,(5.1.8)-1*
G04 #@! TF.CreationDate,2021-08-22T18:59:02-06:00*
G04 #@! TF.ProjectId,LED-Controller,4c45442d-436f-46e7-9472-6f6c6c65722e,rev?*
G04 #@! TF.SameCoordinates,Original*
G04 #@! TF.FileFunction,Copper,L2,Bot*
G04 #@! TF.FilePolarity,Positive*
%FSLAX46Y46*%
G04 Gerber Fmt 4.6, Leading zero omitted, Abs format (unit mm)*
G04 Created by KiCad (PCBNEW (5.1.8)-1) date 2021-08-22 18:59:02*
%MOMM*%
%LPD*%
G01*
G04 APERTURE LIST*
G04 #@! TA.AperFunction,ComponentPad*
%ADD10C,1.650000*%
G04 #@! TD*
G04 #@! TA.AperFunction,ComponentPad*
%ADD11R,1.650000X1.650000*%
G04 #@! TD*
G04 #@! TA.AperFunction,ComponentPad*
%ADD12C,2.750000*%
G04 #@! TD*
G04 #@! TA.AperFunction,ComponentPad*
%ADD13O,1.700000X1.700000*%
G04 #@! TD*
G04 #@! TA.AperFunction,ComponentPad*
%ADD14R,1.700000X1.700000*%
G04 #@! TD*
G04 #@! TA.AperFunction,ViaPad*
%ADD15C,0.800000*%
G04 #@! TD*
G04 #@! TA.AperFunction,Conductor*
%ADD16C,2.000000*%
G04 #@! TD*
G04 #@! TA.AperFunction,Conductor*
%ADD17C,0.250000*%
G04 #@! TD*
G04 #@! TA.AperFunction,Conductor*
%ADD18C,0.254000*%
G04 #@! TD*
G04 #@! TA.AperFunction,Conductor*
%ADD19C,0.100000*%
G04 #@! TD*
G04 APERTURE END LIST*
D10*
X153830000Y-91540000D03*
X151290000Y-91540000D03*
X148750000Y-91540000D03*
X153830000Y-89000000D03*
X151290000Y-89000000D03*
D11*
X148750000Y-89000000D03*
D10*
X153830000Y-83790000D03*
X151290000Y-83790000D03*
X148750000Y-83790000D03*
X153830000Y-81250000D03*
X151290000Y-81250000D03*
D11*
X148750000Y-81250000D03*
D10*
X153830000Y-76040000D03*
X151290000Y-76040000D03*
X148750000Y-76040000D03*
X153830000Y-73500000D03*
X151290000Y-73500000D03*
D11*
X148750000Y-73500000D03*
D12*
X151400000Y-97000000D03*
G04 #@! TA.AperFunction,ComponentPad*
G36*
G01*
X144625000Y-98125002D02*
X144625000Y-95874998D01*
G75*
G02*
X144874998Y-95625000I249998J0D01*
G01*
X147125002Y-95625000D01*
G75*
G02*
X147375000Y-95874998I0J-249998D01*
G01*
X147375000Y-98125002D01*
G75*
G02*
X147125002Y-98375000I-249998J0D01*
G01*
X144874998Y-98375000D01*
G75*
G02*
X144625000Y-98125002I0J249998D01*
G01*
G37*
G04 #@! TD.AperFunction*
D13*
X121500000Y-92170000D03*
X121500000Y-94710000D03*
D14*
X121500000Y-97250000D03*
D13*
X122250000Y-72670000D03*
X122250000Y-75210000D03*
D14*
X122250000Y-77750000D03*
D13*
X141660000Y-71750000D03*
X139120000Y-71750000D03*
X136580000Y-71750000D03*
X134040000Y-71750000D03*
D14*
X131500000Y-71750000D03*
D15*
X121000000Y-88000000D03*
X139575000Y-87175000D03*
X139250000Y-98000000D03*
X136000000Y-89250000D03*
X127000000Y-86250000D03*
X126000000Y-80750000D03*
X137750000Y-83500000D03*
X129125000Y-77625000D03*
X138500000Y-77750000D03*
X136250000Y-77500000D03*
D16*
X153830000Y-83790000D02*
X153830000Y-91540000D01*
X153830000Y-81250000D02*
X153830000Y-73500000D01*
D17*
X151400000Y-73610000D02*
X151290000Y-73500000D01*
D16*
X151400000Y-97000000D02*
X151400000Y-73610000D01*
D17*
X136000000Y-89250000D02*
X133000000Y-86250000D01*
X133000000Y-86250000D02*
X127000000Y-86250000D01*
X134040000Y-72710000D02*
X134040000Y-71750000D01*
X126000000Y-80750000D02*
X129125000Y-77625000D01*
X126000000Y-80750000D02*
X127250000Y-80750000D01*
X127250000Y-80750000D02*
X130000000Y-83500000D01*
X130000000Y-83500000D02*
X137750000Y-83500000D01*
X129125000Y-77625000D02*
X134040000Y-72710000D01*
X140210000Y-76040000D02*
X148750000Y-76040000D01*
X138500000Y-77750000D02*
X140210000Y-76040000D01*
X136250000Y-77500000D02*
X139500000Y-74250000D01*
X148000000Y-74250000D02*
X148750000Y-73500000D01*
X139500000Y-74250000D02*
X148000000Y-74250000D01*
D18*
X157315001Y-100815000D02*
X118685000Y-100815000D01*
X118685000Y-96400000D01*
X120011928Y-96400000D01*
X120011928Y-98100000D01*
X120024188Y-98224482D01*
X120060498Y-98344180D01*
X120119463Y-98454494D01*
X120198815Y-98551185D01*
X120295506Y-98630537D01*
X120405820Y-98689502D01*
X120525518Y-98725812D01*
X120650000Y-98738072D01*
X122350000Y-98738072D01*
X122474482Y-98725812D01*
X122594180Y-98689502D01*
X122704494Y-98630537D01*
X122801185Y-98551185D01*
X122880537Y-98454494D01*
X122923028Y-98375000D01*
X143986928Y-98375000D01*
X143999188Y-98499482D01*
X144035498Y-98619180D01*
X144094463Y-98729494D01*
X144173815Y-98826185D01*
X144270506Y-98905537D01*
X144380820Y-98964502D01*
X144500518Y-99000812D01*
X144625000Y-99013072D01*
X145714250Y-99010000D01*
X145873000Y-98851250D01*
X145873000Y-97127000D01*
X146127000Y-97127000D01*
X146127000Y-98851250D01*
X146285750Y-99010000D01*
X147375000Y-99013072D01*
X147499482Y-99000812D01*
X147619180Y-98964502D01*
X147729494Y-98905537D01*
X147826185Y-98826185D01*
X147905537Y-98729494D01*
X147964502Y-98619180D01*
X148000812Y-98499482D01*
X148013072Y-98375000D01*
X148010000Y-97285750D01*
X147851250Y-97127000D01*
X146127000Y-97127000D01*
X145873000Y-97127000D01*
X144148750Y-97127000D01*
X143990000Y-97285750D01*
X143986928Y-98375000D01*
X122923028Y-98375000D01*
X122939502Y-98344180D01*
X122975812Y-98224482D01*
X122988072Y-98100000D01*
X122988072Y-96400000D01*
X122975812Y-96275518D01*
X122939502Y-96155820D01*
X122880537Y-96045506D01*
X122801185Y-95948815D01*
X122704494Y-95869463D01*
X122594180Y-95810498D01*
X122513534Y-95786034D01*
X122597588Y-95710269D01*
X122661189Y-95625000D01*
X143986928Y-95625000D01*
X143990000Y-96714250D01*
X144148750Y-96873000D01*
X145873000Y-96873000D01*
X145873000Y-95148750D01*
X146127000Y-95148750D01*
X146127000Y-96873000D01*
X147851250Y-96873000D01*
X148010000Y-96714250D01*
X148013072Y-95625000D01*
X148000812Y-95500518D01*
X147964502Y-95380820D01*
X147905537Y-95270506D01*
X147826185Y-95173815D01*
X147729494Y-95094463D01*
X147619180Y-95035498D01*
X147499482Y-94999188D01*
X147375000Y-94986928D01*
X146285750Y-94990000D01*
X146127000Y-95148750D01*
X145873000Y-95148750D01*
X145714250Y-94990000D01*
X144625000Y-94986928D01*
X144500518Y-94999188D01*
X144380820Y-95035498D01*
X144270506Y-95094463D01*
X144173815Y-95173815D01*
X144094463Y-95270506D01*
X144035498Y-95380820D01*
X143999188Y-95500518D01*
X143986928Y-95625000D01*
X122661189Y-95625000D01*
X122771641Y-95476920D01*
X122896825Y-95214099D01*
X122941476Y-95066890D01*
X122820155Y-94837000D01*
X121627000Y-94837000D01*
X121627000Y-94857000D01*
X121373000Y-94857000D01*
X121373000Y-94837000D01*
X120179845Y-94837000D01*
X120058524Y-95066890D01*
X120103175Y-95214099D01*
X120228359Y-95476920D01*
X120402412Y-95710269D01*
X120486466Y-95786034D01*
X120405820Y-95810498D01*
X120295506Y-95869463D01*
X120198815Y-95948815D01*
X120119463Y-96045506D01*
X120060498Y-96155820D01*
X120024188Y-96275518D01*
X120011928Y-96400000D01*
X118685000Y-96400000D01*
X118685000Y-92023740D01*
X120015000Y-92023740D01*
X120015000Y-92316260D01*
X120072068Y-92603158D01*
X120184010Y-92873411D01*
X120346525Y-93116632D01*
X120553368Y-93323475D01*
X120735534Y-93445195D01*
X120618645Y-93514822D01*
X120402412Y-93709731D01*
X120228359Y-93943080D01*
X120103175Y-94205901D01*
X120058524Y-94353110D01*
X120179845Y-94583000D01*
X121373000Y-94583000D01*
X121373000Y-94563000D01*
X121627000Y-94563000D01*
X121627000Y-94583000D01*
X122820155Y-94583000D01*
X122941476Y-94353110D01*
X122896825Y-94205901D01*
X122771641Y-93943080D01*
X122597588Y-93709731D01*
X122381355Y-93514822D01*
X122264466Y-93445195D01*
X122446632Y-93323475D01*
X122653475Y-93116632D01*
X122815990Y-92873411D01*
X122927932Y-92603158D01*
X122985000Y-92316260D01*
X122985000Y-92023740D01*
X122927932Y-91736842D01*
X122815990Y-91466589D01*
X122653475Y-91223368D01*
X122446632Y-91016525D01*
X122203411Y-90854010D01*
X121933158Y-90742068D01*
X121646260Y-90685000D01*
X121353740Y-90685000D01*
X121066842Y-90742068D01*
X120796589Y-90854010D01*
X120553368Y-91016525D01*
X120346525Y-91223368D01*
X120184010Y-91466589D01*
X120072068Y-91736842D01*
X120015000Y-92023740D01*
X118685000Y-92023740D01*
X118685000Y-86148061D01*
X125965000Y-86148061D01*
X125965000Y-86351939D01*
X126004774Y-86551898D01*
X126082795Y-86740256D01*
X126196063Y-86909774D01*
X126340226Y-87053937D01*
X126509744Y-87167205D01*
X126698102Y-87245226D01*
X126898061Y-87285000D01*
X127101939Y-87285000D01*
X127301898Y-87245226D01*
X127490256Y-87167205D01*
X127659774Y-87053937D01*
X127703711Y-87010000D01*
X132685199Y-87010000D01*
X134965000Y-89289802D01*
X134965000Y-89351939D01*
X135004774Y-89551898D01*
X135082795Y-89740256D01*
X135196063Y-89909774D01*
X135340226Y-90053937D01*
X135509744Y-90167205D01*
X135698102Y-90245226D01*
X135898061Y-90285000D01*
X136101939Y-90285000D01*
X136301898Y-90245226D01*
X136490256Y-90167205D01*
X136659774Y-90053937D01*
X136803937Y-89909774D01*
X136917205Y-89740256D01*
X136995226Y-89551898D01*
X137035000Y-89351939D01*
X137035000Y-89148061D01*
X136995226Y-88948102D01*
X136917205Y-88759744D01*
X136803937Y-88590226D01*
X136659774Y-88446063D01*
X136490256Y-88332795D01*
X136301898Y-88254774D01*
X136101939Y-88215000D01*
X136039802Y-88215000D01*
X133563804Y-85739003D01*
X133540001Y-85709999D01*
X133424276Y-85615026D01*
X133292247Y-85544454D01*
X133148986Y-85500997D01*
X133037333Y-85490000D01*
X133037322Y-85490000D01*
X133000000Y-85486324D01*
X132962678Y-85490000D01*
X127703711Y-85490000D01*
X127659774Y-85446063D01*
X127490256Y-85332795D01*
X127301898Y-85254774D01*
X127101939Y-85215000D01*
X126898061Y-85215000D01*
X126698102Y-85254774D01*
X126509744Y-85332795D01*
X126340226Y-85446063D01*
X126196063Y-85590226D01*
X126082795Y-85759744D01*
X126004774Y-85948102D01*
X125965000Y-86148061D01*
X118685000Y-86148061D01*
X118685000Y-80648061D01*
X124965000Y-80648061D01*
X124965000Y-80851939D01*
X125004774Y-81051898D01*
X125082795Y-81240256D01*
X125196063Y-81409774D01*
X125340226Y-81553937D01*
X125509744Y-81667205D01*
X125698102Y-81745226D01*
X125898061Y-81785000D01*
X126101939Y-81785000D01*
X126301898Y-81745226D01*
X126490256Y-81667205D01*
X126659774Y-81553937D01*
X126703711Y-81510000D01*
X126935199Y-81510000D01*
X129436201Y-84011003D01*
X129459999Y-84040001D01*
X129575724Y-84134974D01*
X129707753Y-84205546D01*
X129851014Y-84249003D01*
X129962667Y-84260000D01*
X129962676Y-84260000D01*
X129999999Y-84263676D01*
X130037322Y-84260000D01*
X137046289Y-84260000D01*
X137090226Y-84303937D01*
X137259744Y-84417205D01*
X137448102Y-84495226D01*
X137648061Y-84535000D01*
X137851939Y-84535000D01*
X138051898Y-84495226D01*
X138240256Y-84417205D01*
X138409774Y-84303937D01*
X138553937Y-84159774D01*
X138667205Y-83990256D01*
X138745226Y-83801898D01*
X138785000Y-83601939D01*
X138785000Y-83398061D01*
X138745226Y-83198102D01*
X138667205Y-83009744D01*
X138553937Y-82840226D01*
X138409774Y-82696063D01*
X138240256Y-82582795D01*
X138051898Y-82504774D01*
X137851939Y-82465000D01*
X137648061Y-82465000D01*
X137448102Y-82504774D01*
X137259744Y-82582795D01*
X137090226Y-82696063D01*
X137046289Y-82740000D01*
X130314802Y-82740000D01*
X127813804Y-80239003D01*
X127790001Y-80209999D01*
X127693774Y-80131028D01*
X129164803Y-78660000D01*
X129226939Y-78660000D01*
X129426898Y-78620226D01*
X129615256Y-78542205D01*
X129784774Y-78428937D01*
X129928937Y-78284774D01*
X130042205Y-78115256D01*
X130120226Y-77926898D01*
X130160000Y-77726939D01*
X130160000Y-77664801D01*
X130426740Y-77398061D01*
X135215000Y-77398061D01*
X135215000Y-77601939D01*
X135254774Y-77801898D01*
X135332795Y-77990256D01*
X135446063Y-78159774D01*
X135590226Y-78303937D01*
X135759744Y-78417205D01*
X135948102Y-78495226D01*
X136148061Y-78535000D01*
X136351939Y-78535000D01*
X136551898Y-78495226D01*
X136740256Y-78417205D01*
X136909774Y-78303937D01*
X137053937Y-78159774D01*
X137167205Y-77990256D01*
X137245226Y-77801898D01*
X137285000Y-77601939D01*
X137285000Y-77539801D01*
X137618513Y-77206289D01*
X137582795Y-77259744D01*
X137504774Y-77448102D01*
X137465000Y-77648061D01*
X137465000Y-77851939D01*
X137504774Y-78051898D01*
X137582795Y-78240256D01*
X137696063Y-78409774D01*
X137840226Y-78553937D01*
X138009744Y-78667205D01*
X138198102Y-78745226D01*
X138398061Y-78785000D01*
X138601939Y-78785000D01*
X138801898Y-78745226D01*
X138990256Y-78667205D01*
X139159774Y-78553937D01*
X139303937Y-78409774D01*
X139417205Y-78240256D01*
X139495226Y-78051898D01*
X139535000Y-77851939D01*
X139535000Y-77789801D01*
X140524802Y-76800000D01*
X147501889Y-76800000D01*
X147615944Y-76970696D01*
X147819304Y-77174056D01*
X148058431Y-77333835D01*
X148324134Y-77443893D01*
X148606203Y-77500000D01*
X148893797Y-77500000D01*
X149175866Y-77443893D01*
X149441569Y-77333835D01*
X149680696Y-77174056D01*
X149765001Y-77089751D01*
X149765001Y-79819063D01*
X149699482Y-79799188D01*
X149575000Y-79786928D01*
X147925000Y-79786928D01*
X147800518Y-79799188D01*
X147680820Y-79835498D01*
X147570506Y-79894463D01*
X147473815Y-79973815D01*
X147394463Y-80070506D01*
X147335498Y-80180820D01*
X147299188Y-80300518D01*
X147286928Y-80425000D01*
X147286928Y-82075000D01*
X147299188Y-82199482D01*
X147335498Y-82319180D01*
X147394463Y-82429494D01*
X147473815Y-82526185D01*
X147570506Y-82605537D01*
X147680820Y-82664502D01*
X147780506Y-82694742D01*
X147615944Y-82859304D01*
X147456165Y-83098431D01*
X147346107Y-83364134D01*
X147290000Y-83646203D01*
X147290000Y-83933797D01*
X147346107Y-84215866D01*
X147456165Y-84481569D01*
X147615944Y-84720696D01*
X147819304Y-84924056D01*
X148058431Y-85083835D01*
X148324134Y-85193893D01*
X148606203Y-85250000D01*
X148893797Y-85250000D01*
X149175866Y-85193893D01*
X149441569Y-85083835D01*
X149680696Y-84924056D01*
X149765001Y-84839751D01*
X149765000Y-87569063D01*
X149699482Y-87549188D01*
X149575000Y-87536928D01*
X147925000Y-87536928D01*
X147800518Y-87549188D01*
X147680820Y-87585498D01*
X147570506Y-87644463D01*
X147473815Y-87723815D01*
X147394463Y-87820506D01*
X147335498Y-87930820D01*
X147299188Y-88050518D01*
X147286928Y-88175000D01*
X147286928Y-89825000D01*
X147299188Y-89949482D01*
X147335498Y-90069180D01*
X147394463Y-90179494D01*
X147473815Y-90276185D01*
X147570506Y-90355537D01*
X147680820Y-90414502D01*
X147780506Y-90444742D01*
X147615944Y-90609304D01*
X147456165Y-90848431D01*
X147346107Y-91114134D01*
X147290000Y-91396203D01*
X147290000Y-91683797D01*
X147346107Y-91965866D01*
X147456165Y-92231569D01*
X147615944Y-92470696D01*
X147819304Y-92674056D01*
X148058431Y-92833835D01*
X148324134Y-92943893D01*
X148606203Y-93000000D01*
X148893797Y-93000000D01*
X149175866Y-92943893D01*
X149441569Y-92833835D01*
X149680696Y-92674056D01*
X149765000Y-92589752D01*
X149765000Y-95829045D01*
X149618761Y-96047908D01*
X149467243Y-96413704D01*
X149390000Y-96802032D01*
X149390000Y-97197968D01*
X149467243Y-97586296D01*
X149618761Y-97952092D01*
X149838731Y-98281301D01*
X150118699Y-98561269D01*
X150447908Y-98781239D01*
X150813704Y-98932757D01*
X151202032Y-99010000D01*
X151597968Y-99010000D01*
X151986296Y-98932757D01*
X152352092Y-98781239D01*
X152681301Y-98561269D01*
X152961269Y-98281301D01*
X153181239Y-97952092D01*
X153332757Y-97586296D01*
X153410000Y-97197968D01*
X153410000Y-96802032D01*
X153332757Y-96413704D01*
X153181239Y-96047908D01*
X153035000Y-95829045D01*
X153035000Y-92669323D01*
X153073663Y-92797073D01*
X153333439Y-92920473D01*
X153612297Y-92990823D01*
X153899521Y-93005417D01*
X154184074Y-92963697D01*
X154455020Y-92867265D01*
X154586337Y-92797073D01*
X154660946Y-92550551D01*
X153830000Y-91719605D01*
X153815858Y-91733748D01*
X153636253Y-91554143D01*
X153650395Y-91540000D01*
X154009605Y-91540000D01*
X154840551Y-92370946D01*
X155087073Y-92296337D01*
X155210473Y-92036561D01*
X155280823Y-91757703D01*
X155295417Y-91470479D01*
X155253697Y-91185926D01*
X155157265Y-90914980D01*
X155087073Y-90783663D01*
X154840551Y-90709054D01*
X154009605Y-91540000D01*
X153650395Y-91540000D01*
X153636253Y-91525858D01*
X153815858Y-91346253D01*
X153830000Y-91360395D01*
X154660946Y-90529449D01*
X154586337Y-90282927D01*
X154560728Y-90270762D01*
X154586337Y-90257073D01*
X154660946Y-90010551D01*
X153830000Y-89179605D01*
X153815858Y-89193748D01*
X153636253Y-89014143D01*
X153650395Y-89000000D01*
X154009605Y-89000000D01*
X154840551Y-89830946D01*
X155087073Y-89756337D01*
X155210473Y-89496561D01*
X155280823Y-89217703D01*
X155295417Y-88930479D01*
X155253697Y-88645926D01*
X155157265Y-88374980D01*
X155087073Y-88243663D01*
X154840551Y-88169054D01*
X154009605Y-89000000D01*
X153650395Y-89000000D01*
X153636253Y-88985858D01*
X153815858Y-88806253D01*
X153830000Y-88820395D01*
X154660946Y-87989449D01*
X154586337Y-87742927D01*
X154326561Y-87619527D01*
X154047703Y-87549177D01*
X153760479Y-87534583D01*
X153475926Y-87576303D01*
X153204980Y-87672735D01*
X153073663Y-87742927D01*
X153035000Y-87870677D01*
X153035000Y-84919323D01*
X153073663Y-85047073D01*
X153333439Y-85170473D01*
X153612297Y-85240823D01*
X153899521Y-85255417D01*
X154184074Y-85213697D01*
X154455020Y-85117265D01*
X154586337Y-85047073D01*
X154660946Y-84800551D01*
X153830000Y-83969605D01*
X153815858Y-83983748D01*
X153636253Y-83804143D01*
X153650395Y-83790000D01*
X154009605Y-83790000D01*
X154840551Y-84620946D01*
X155087073Y-84546337D01*
X155210473Y-84286561D01*
X155280823Y-84007703D01*
X155295417Y-83720479D01*
X155253697Y-83435926D01*
X155157265Y-83164980D01*
X155087073Y-83033663D01*
X154840551Y-82959054D01*
X154009605Y-83790000D01*
X153650395Y-83790000D01*
X153636253Y-83775858D01*
X153815858Y-83596253D01*
X153830000Y-83610395D01*
X154660946Y-82779449D01*
X154586337Y-82532927D01*
X154560728Y-82520762D01*
X154586337Y-82507073D01*
X154660946Y-82260551D01*
X153830000Y-81429605D01*
X153815858Y-81443748D01*
X153636253Y-81264143D01*
X153650395Y-81250000D01*
X154009605Y-81250000D01*
X154840551Y-82080946D01*
X155087073Y-82006337D01*
X155210473Y-81746561D01*
X155280823Y-81467703D01*
X155295417Y-81180479D01*
X155253697Y-80895926D01*
X155157265Y-80624980D01*
X155087073Y-80493663D01*
X154840551Y-80419054D01*
X154009605Y-81250000D01*
X153650395Y-81250000D01*
X153636253Y-81235858D01*
X153815858Y-81056253D01*
X153830000Y-81070395D01*
X154660946Y-80239449D01*
X154586337Y-79992927D01*
X154326561Y-79869527D01*
X154047703Y-79799177D01*
X153760479Y-79784583D01*
X153475926Y-79826303D01*
X153204980Y-79922735D01*
X153073663Y-79992927D01*
X153035000Y-80120677D01*
X153035000Y-77169323D01*
X153073663Y-77297073D01*
X153333439Y-77420473D01*
X153612297Y-77490823D01*
X153899521Y-77505417D01*
X154184074Y-77463697D01*
X154455020Y-77367265D01*
X154586337Y-77297073D01*
X154660946Y-77050551D01*
X153830000Y-76219605D01*
X153815858Y-76233748D01*
X153636253Y-76054143D01*
X153650395Y-76040000D01*
X154009605Y-76040000D01*
X154840551Y-76870946D01*
X155087073Y-76796337D01*
X155210473Y-76536561D01*
X155280823Y-76257703D01*
X155295417Y-75970479D01*
X155253697Y-75685926D01*
X155157265Y-75414980D01*
X155087073Y-75283663D01*
X154840551Y-75209054D01*
X154009605Y-76040000D01*
X153650395Y-76040000D01*
X153636253Y-76025858D01*
X153815858Y-75846253D01*
X153830000Y-75860395D01*
X154660946Y-75029449D01*
X154586337Y-74782927D01*
X154560728Y-74770762D01*
X154586337Y-74757073D01*
X154660946Y-74510551D01*
X153830000Y-73679605D01*
X153815858Y-73693748D01*
X153636253Y-73514143D01*
X153650395Y-73500000D01*
X154009605Y-73500000D01*
X154840551Y-74330946D01*
X155087073Y-74256337D01*
X155210473Y-73996561D01*
X155280823Y-73717703D01*
X155295417Y-73430479D01*
X155253697Y-73145926D01*
X155157265Y-72874980D01*
X155087073Y-72743663D01*
X154840551Y-72669054D01*
X154009605Y-73500000D01*
X153650395Y-73500000D01*
X152819449Y-72669054D01*
X152758124Y-72687614D01*
X152595496Y-72489449D01*
X152999054Y-72489449D01*
X153830000Y-73320395D01*
X154660946Y-72489449D01*
X154586337Y-72242927D01*
X154326561Y-72119527D01*
X154047703Y-72049177D01*
X153760479Y-72034583D01*
X153475926Y-72076303D01*
X153204980Y-72172735D01*
X153073663Y-72242927D01*
X152999054Y-72489449D01*
X152595496Y-72489449D01*
X152561714Y-72448286D01*
X152312752Y-72243969D01*
X152028715Y-72092148D01*
X151720516Y-71998657D01*
X151400000Y-71967089D01*
X151079485Y-71998657D01*
X150771286Y-72092148D01*
X150487249Y-72243969D01*
X150238287Y-72448286D01*
X150188283Y-72509216D01*
X150164502Y-72430820D01*
X150105537Y-72320506D01*
X150026185Y-72223815D01*
X149929494Y-72144463D01*
X149819180Y-72085498D01*
X149699482Y-72049188D01*
X149575000Y-72036928D01*
X147925000Y-72036928D01*
X147800518Y-72049188D01*
X147680820Y-72085498D01*
X147570506Y-72144463D01*
X147473815Y-72223815D01*
X147394463Y-72320506D01*
X147335498Y-72430820D01*
X147299188Y-72550518D01*
X147286928Y-72675000D01*
X147286928Y-73490000D01*
X139537322Y-73490000D01*
X139499999Y-73486324D01*
X139462676Y-73490000D01*
X139462667Y-73490000D01*
X139351014Y-73500997D01*
X139207753Y-73544454D01*
X139075723Y-73615026D01*
X139034342Y-73648987D01*
X138959999Y-73709999D01*
X138936201Y-73738997D01*
X136210199Y-76465000D01*
X136148061Y-76465000D01*
X135948102Y-76504774D01*
X135759744Y-76582795D01*
X135590226Y-76696063D01*
X135446063Y-76840226D01*
X135332795Y-77009744D01*
X135254774Y-77198102D01*
X135215000Y-77398061D01*
X130426740Y-77398061D01*
X134551004Y-73273798D01*
X134580001Y-73250001D01*
X134674974Y-73134276D01*
X134702392Y-73082980D01*
X134743411Y-73065990D01*
X134986632Y-72903475D01*
X135193475Y-72696632D01*
X135315195Y-72514466D01*
X135384822Y-72631355D01*
X135579731Y-72847588D01*
X135813080Y-73021641D01*
X136075901Y-73146825D01*
X136223110Y-73191476D01*
X136453000Y-73070155D01*
X136453000Y-71877000D01*
X136433000Y-71877000D01*
X136433000Y-71623000D01*
X136453000Y-71623000D01*
X136453000Y-70429845D01*
X136707000Y-70429845D01*
X136707000Y-71623000D01*
X136727000Y-71623000D01*
X136727000Y-71877000D01*
X136707000Y-71877000D01*
X136707000Y-73070155D01*
X136936890Y-73191476D01*
X137084099Y-73146825D01*
X137346920Y-73021641D01*
X137580269Y-72847588D01*
X137775178Y-72631355D01*
X137844805Y-72514466D01*
X137966525Y-72696632D01*
X138173368Y-72903475D01*
X138416589Y-73065990D01*
X138686842Y-73177932D01*
X138973740Y-73235000D01*
X139266260Y-73235000D01*
X139553158Y-73177932D01*
X139823411Y-73065990D01*
X140066632Y-72903475D01*
X140273475Y-72696632D01*
X140390000Y-72522240D01*
X140506525Y-72696632D01*
X140713368Y-72903475D01*
X140956589Y-73065990D01*
X141226842Y-73177932D01*
X141513740Y-73235000D01*
X141806260Y-73235000D01*
X142093158Y-73177932D01*
X142363411Y-73065990D01*
X142606632Y-72903475D01*
X142813475Y-72696632D01*
X142975990Y-72453411D01*
X143087932Y-72183158D01*
X143145000Y-71896260D01*
X143145000Y-71603740D01*
X143087932Y-71316842D01*
X142975990Y-71046589D01*
X142813475Y-70803368D01*
X142606632Y-70596525D01*
X142363411Y-70434010D01*
X142093158Y-70322068D01*
X141806260Y-70265000D01*
X141513740Y-70265000D01*
X141226842Y-70322068D01*
X140956589Y-70434010D01*
X140713368Y-70596525D01*
X140506525Y-70803368D01*
X140390000Y-70977760D01*
X140273475Y-70803368D01*
X140066632Y-70596525D01*
X139823411Y-70434010D01*
X139553158Y-70322068D01*
X139266260Y-70265000D01*
X138973740Y-70265000D01*
X138686842Y-70322068D01*
X138416589Y-70434010D01*
X138173368Y-70596525D01*
X137966525Y-70803368D01*
X137844805Y-70985534D01*
X137775178Y-70868645D01*
X137580269Y-70652412D01*
X137346920Y-70478359D01*
X137084099Y-70353175D01*
X136936890Y-70308524D01*
X136707000Y-70429845D01*
X136453000Y-70429845D01*
X136223110Y-70308524D01*
X136075901Y-70353175D01*
X135813080Y-70478359D01*
X135579731Y-70652412D01*
X135384822Y-70868645D01*
X135315195Y-70985534D01*
X135193475Y-70803368D01*
X134986632Y-70596525D01*
X134743411Y-70434010D01*
X134473158Y-70322068D01*
X134186260Y-70265000D01*
X133893740Y-70265000D01*
X133606842Y-70322068D01*
X133336589Y-70434010D01*
X133093368Y-70596525D01*
X132961513Y-70728380D01*
X132939502Y-70655820D01*
X132880537Y-70545506D01*
X132801185Y-70448815D01*
X132704494Y-70369463D01*
X132594180Y-70310498D01*
X132474482Y-70274188D01*
X132350000Y-70261928D01*
X130650000Y-70261928D01*
X130525518Y-70274188D01*
X130405820Y-70310498D01*
X130295506Y-70369463D01*
X130198815Y-70448815D01*
X130119463Y-70545506D01*
X130060498Y-70655820D01*
X130024188Y-70775518D01*
X130011928Y-70900000D01*
X130011928Y-72600000D01*
X130024188Y-72724482D01*
X130060498Y-72844180D01*
X130119463Y-72954494D01*
X130198815Y-73051185D01*
X130295506Y-73130537D01*
X130405820Y-73189502D01*
X130525518Y-73225812D01*
X130650000Y-73238072D01*
X132350000Y-73238072D01*
X132446645Y-73228554D01*
X129085199Y-76590000D01*
X129023061Y-76590000D01*
X128823102Y-76629774D01*
X128634744Y-76707795D01*
X128465226Y-76821063D01*
X128321063Y-76965226D01*
X128207795Y-77134744D01*
X128129774Y-77323102D01*
X128090000Y-77523061D01*
X128090000Y-77585197D01*
X125960199Y-79715000D01*
X125898061Y-79715000D01*
X125698102Y-79754774D01*
X125509744Y-79832795D01*
X125340226Y-79946063D01*
X125196063Y-80090226D01*
X125082795Y-80259744D01*
X125004774Y-80448102D01*
X124965000Y-80648061D01*
X118685000Y-80648061D01*
X118685000Y-78600000D01*
X120761928Y-78600000D01*
X120774188Y-78724482D01*
X120810498Y-78844180D01*
X120869463Y-78954494D01*
X120948815Y-79051185D01*
X121045506Y-79130537D01*
X121155820Y-79189502D01*
X121275518Y-79225812D01*
X121400000Y-79238072D01*
X121964250Y-79235000D01*
X122123000Y-79076250D01*
X122123000Y-77877000D01*
X122377000Y-77877000D01*
X122377000Y-79076250D01*
X122535750Y-79235000D01*
X123100000Y-79238072D01*
X123224482Y-79225812D01*
X123344180Y-79189502D01*
X123454494Y-79130537D01*
X123551185Y-79051185D01*
X123630537Y-78954494D01*
X123689502Y-78844180D01*
X123725812Y-78724482D01*
X123738072Y-78600000D01*
X123735000Y-78035750D01*
X123576250Y-77877000D01*
X122377000Y-77877000D01*
X122123000Y-77877000D01*
X120923750Y-77877000D01*
X120765000Y-78035750D01*
X120761928Y-78600000D01*
X118685000Y-78600000D01*
X118685000Y-76900000D01*
X120761928Y-76900000D01*
X120765000Y-77464250D01*
X120923750Y-77623000D01*
X122123000Y-77623000D01*
X122123000Y-77603000D01*
X122377000Y-77603000D01*
X122377000Y-77623000D01*
X123576250Y-77623000D01*
X123735000Y-77464250D01*
X123738072Y-76900000D01*
X123725812Y-76775518D01*
X123689502Y-76655820D01*
X123630537Y-76545506D01*
X123551185Y-76448815D01*
X123454494Y-76369463D01*
X123344180Y-76310498D01*
X123271620Y-76288487D01*
X123403475Y-76156632D01*
X123565990Y-75913411D01*
X123677932Y-75643158D01*
X123735000Y-75356260D01*
X123735000Y-75063740D01*
X123677932Y-74776842D01*
X123565990Y-74506589D01*
X123403475Y-74263368D01*
X123196632Y-74056525D01*
X123022240Y-73940000D01*
X123196632Y-73823475D01*
X123403475Y-73616632D01*
X123565990Y-73373411D01*
X123677932Y-73103158D01*
X123735000Y-72816260D01*
X123735000Y-72523740D01*
X123677932Y-72236842D01*
X123565990Y-71966589D01*
X123403475Y-71723368D01*
X123196632Y-71516525D01*
X122953411Y-71354010D01*
X122683158Y-71242068D01*
X122396260Y-71185000D01*
X122103740Y-71185000D01*
X121816842Y-71242068D01*
X121546589Y-71354010D01*
X121303368Y-71516525D01*
X121096525Y-71723368D01*
X120934010Y-71966589D01*
X120822068Y-72236842D01*
X120765000Y-72523740D01*
X120765000Y-72816260D01*
X120822068Y-73103158D01*
X120934010Y-73373411D01*
X121096525Y-73616632D01*
X121303368Y-73823475D01*
X121477760Y-73940000D01*
X121303368Y-74056525D01*
X121096525Y-74263368D01*
X120934010Y-74506589D01*
X120822068Y-74776842D01*
X120765000Y-75063740D01*
X120765000Y-75356260D01*
X120822068Y-75643158D01*
X120934010Y-75913411D01*
X121096525Y-76156632D01*
X121228380Y-76288487D01*
X121155820Y-76310498D01*
X121045506Y-76369463D01*
X120948815Y-76448815D01*
X120869463Y-76545506D01*
X120810498Y-76655820D01*
X120774188Y-76775518D01*
X120761928Y-76900000D01*
X118685000Y-76900000D01*
X118685000Y-70185000D01*
X157315000Y-70185000D01*
X157315001Y-100815000D01*
G04 #@! TA.AperFunction,Conductor*
D19*
G36*
X157315001Y-100815000D02*
G01*
X118685000Y-100815000D01*
X118685000Y-96400000D01*
X120011928Y-96400000D01*
X120011928Y-98100000D01*
X120024188Y-98224482D01*
X120060498Y-98344180D01*
X120119463Y-98454494D01*
X120198815Y-98551185D01*
X120295506Y-98630537D01*
X120405820Y-98689502D01*
X120525518Y-98725812D01*
X120650000Y-98738072D01*
X122350000Y-98738072D01*
X122474482Y-98725812D01*
X122594180Y-98689502D01*
X122704494Y-98630537D01*
X122801185Y-98551185D01*
X122880537Y-98454494D01*
X122923028Y-98375000D01*
X143986928Y-98375000D01*
X143999188Y-98499482D01*
X144035498Y-98619180D01*
X144094463Y-98729494D01*
X144173815Y-98826185D01*
X144270506Y-98905537D01*
X144380820Y-98964502D01*
X144500518Y-99000812D01*
X144625000Y-99013072D01*
X145714250Y-99010000D01*
X145873000Y-98851250D01*
X145873000Y-97127000D01*
X146127000Y-97127000D01*
X146127000Y-98851250D01*
X146285750Y-99010000D01*
X147375000Y-99013072D01*
X147499482Y-99000812D01*
X147619180Y-98964502D01*
X147729494Y-98905537D01*
X147826185Y-98826185D01*
X147905537Y-98729494D01*
X147964502Y-98619180D01*
X148000812Y-98499482D01*
X148013072Y-98375000D01*
X148010000Y-97285750D01*
X147851250Y-97127000D01*
X146127000Y-97127000D01*
X145873000Y-97127000D01*
X144148750Y-97127000D01*
X143990000Y-97285750D01*
X143986928Y-98375000D01*
X122923028Y-98375000D01*
X122939502Y-98344180D01*
X122975812Y-98224482D01*
X122988072Y-98100000D01*
X122988072Y-96400000D01*
X122975812Y-96275518D01*
X122939502Y-96155820D01*
X122880537Y-96045506D01*
X122801185Y-95948815D01*
X122704494Y-95869463D01*
X122594180Y-95810498D01*
X122513534Y-95786034D01*
X122597588Y-95710269D01*
X122661189Y-95625000D01*
X143986928Y-95625000D01*
X143990000Y-96714250D01*
X144148750Y-96873000D01*
X145873000Y-96873000D01*
X145873000Y-95148750D01*
X146127000Y-95148750D01*
X146127000Y-96873000D01*
X147851250Y-96873000D01*
X148010000Y-96714250D01*
X148013072Y-95625000D01*
X148000812Y-95500518D01*
X147964502Y-95380820D01*
X147905537Y-95270506D01*
X147826185Y-95173815D01*
X147729494Y-95094463D01*
X147619180Y-95035498D01*
X147499482Y-94999188D01*
X147375000Y-94986928D01*
X146285750Y-94990000D01*
X146127000Y-95148750D01*
X145873000Y-95148750D01*
X145714250Y-94990000D01*
X144625000Y-94986928D01*
X144500518Y-94999188D01*
X144380820Y-95035498D01*
X144270506Y-95094463D01*
X144173815Y-95173815D01*
X144094463Y-95270506D01*
X144035498Y-95380820D01*
X143999188Y-95500518D01*
X143986928Y-95625000D01*
X122661189Y-95625000D01*
X122771641Y-95476920D01*
X122896825Y-95214099D01*
X122941476Y-95066890D01*
X122820155Y-94837000D01*
X121627000Y-94837000D01*
X121627000Y-94857000D01*
X121373000Y-94857000D01*
X121373000Y-94837000D01*
X120179845Y-94837000D01*
X120058524Y-95066890D01*
X120103175Y-95214099D01*
X120228359Y-95476920D01*
X120402412Y-95710269D01*
X120486466Y-95786034D01*
X120405820Y-95810498D01*
X120295506Y-95869463D01*
X120198815Y-95948815D01*
X120119463Y-96045506D01*
X120060498Y-96155820D01*
X120024188Y-96275518D01*
X120011928Y-96400000D01*
X118685000Y-96400000D01*
X118685000Y-92023740D01*
X120015000Y-92023740D01*
X120015000Y-92316260D01*
X120072068Y-92603158D01*
X120184010Y-92873411D01*
X120346525Y-93116632D01*
X120553368Y-93323475D01*
X120735534Y-93445195D01*
X120618645Y-93514822D01*
X120402412Y-93709731D01*
X120228359Y-93943080D01*
X120103175Y-94205901D01*
X120058524Y-94353110D01*
X120179845Y-94583000D01*
X121373000Y-94583000D01*
X121373000Y-94563000D01*
X121627000Y-94563000D01*
X121627000Y-94583000D01*
X122820155Y-94583000D01*
X122941476Y-94353110D01*
X122896825Y-94205901D01*
X122771641Y-93943080D01*
X122597588Y-93709731D01*
X122381355Y-93514822D01*
X122264466Y-93445195D01*
X122446632Y-93323475D01*
X122653475Y-93116632D01*
X122815990Y-92873411D01*
X122927932Y-92603158D01*
X122985000Y-92316260D01*
X122985000Y-92023740D01*
X122927932Y-91736842D01*
X122815990Y-91466589D01*
X122653475Y-91223368D01*
X122446632Y-91016525D01*
X122203411Y-90854010D01*
X121933158Y-90742068D01*
X121646260Y-90685000D01*
X121353740Y-90685000D01*
X121066842Y-90742068D01*
X120796589Y-90854010D01*
X120553368Y-91016525D01*
X120346525Y-91223368D01*
X120184010Y-91466589D01*
X120072068Y-91736842D01*
X120015000Y-92023740D01*
X118685000Y-92023740D01*
X118685000Y-86148061D01*
X125965000Y-86148061D01*
X125965000Y-86351939D01*
X126004774Y-86551898D01*
X126082795Y-86740256D01*
X126196063Y-86909774D01*
X126340226Y-87053937D01*
X126509744Y-87167205D01*
X126698102Y-87245226D01*
X126898061Y-87285000D01*
X127101939Y-87285000D01*
X127301898Y-87245226D01*
X127490256Y-87167205D01*
X127659774Y-87053937D01*
X127703711Y-87010000D01*
X132685199Y-87010000D01*
X134965000Y-89289802D01*
X134965000Y-89351939D01*
X135004774Y-89551898D01*
X135082795Y-89740256D01*
X135196063Y-89909774D01*
X135340226Y-90053937D01*
X135509744Y-90167205D01*
X135698102Y-90245226D01*
X135898061Y-90285000D01*
X136101939Y-90285000D01*
X136301898Y-90245226D01*
X136490256Y-90167205D01*
X136659774Y-90053937D01*
X136803937Y-89909774D01*
X136917205Y-89740256D01*
X136995226Y-89551898D01*
X137035000Y-89351939D01*
X137035000Y-89148061D01*
X136995226Y-88948102D01*
X136917205Y-88759744D01*
X136803937Y-88590226D01*
X136659774Y-88446063D01*
X136490256Y-88332795D01*
X136301898Y-88254774D01*
X136101939Y-88215000D01*
X136039802Y-88215000D01*
X133563804Y-85739003D01*
X133540001Y-85709999D01*
X133424276Y-85615026D01*
X133292247Y-85544454D01*
X133148986Y-85500997D01*
X133037333Y-85490000D01*
X133037322Y-85490000D01*
X133000000Y-85486324D01*
X132962678Y-85490000D01*
X127703711Y-85490000D01*
X127659774Y-85446063D01*
X127490256Y-85332795D01*
X127301898Y-85254774D01*
X127101939Y-85215000D01*
X126898061Y-85215000D01*
X126698102Y-85254774D01*
X126509744Y-85332795D01*
X126340226Y-85446063D01*
X126196063Y-85590226D01*
X126082795Y-85759744D01*
X126004774Y-85948102D01*
X125965000Y-86148061D01*
X118685000Y-86148061D01*
X118685000Y-80648061D01*
X124965000Y-80648061D01*
X124965000Y-80851939D01*
X125004774Y-81051898D01*
X125082795Y-81240256D01*
X125196063Y-81409774D01*
X125340226Y-81553937D01*
X125509744Y-81667205D01*
X125698102Y-81745226D01*
X125898061Y-81785000D01*
X126101939Y-81785000D01*
X126301898Y-81745226D01*
X126490256Y-81667205D01*
X126659774Y-81553937D01*
X126703711Y-81510000D01*
X126935199Y-81510000D01*
X129436201Y-84011003D01*
X129459999Y-84040001D01*
X129575724Y-84134974D01*
X129707753Y-84205546D01*
X129851014Y-84249003D01*
X129962667Y-84260000D01*
X129962676Y-84260000D01*
X129999999Y-84263676D01*
X130037322Y-84260000D01*
X137046289Y-84260000D01*
X137090226Y-84303937D01*
X137259744Y-84417205D01*
X137448102Y-84495226D01*
X137648061Y-84535000D01*
X137851939Y-84535000D01*
X138051898Y-84495226D01*
X138240256Y-84417205D01*
X138409774Y-84303937D01*
X138553937Y-84159774D01*
X138667205Y-83990256D01*
X138745226Y-83801898D01*
X138785000Y-83601939D01*
X138785000Y-83398061D01*
X138745226Y-83198102D01*
X138667205Y-83009744D01*
X138553937Y-82840226D01*
X138409774Y-82696063D01*
X138240256Y-82582795D01*
X138051898Y-82504774D01*
X137851939Y-82465000D01*
X137648061Y-82465000D01*
X137448102Y-82504774D01*
X137259744Y-82582795D01*
X137090226Y-82696063D01*
X137046289Y-82740000D01*
X130314802Y-82740000D01*
X127813804Y-80239003D01*
X127790001Y-80209999D01*
X127693774Y-80131028D01*
X129164803Y-78660000D01*
X129226939Y-78660000D01*
X129426898Y-78620226D01*
X129615256Y-78542205D01*
X129784774Y-78428937D01*
X129928937Y-78284774D01*
X130042205Y-78115256D01*
X130120226Y-77926898D01*
X130160000Y-77726939D01*
X130160000Y-77664801D01*
X130426740Y-77398061D01*
X135215000Y-77398061D01*
X135215000Y-77601939D01*
X135254774Y-77801898D01*
X135332795Y-77990256D01*
X135446063Y-78159774D01*
X135590226Y-78303937D01*
X135759744Y-78417205D01*
X135948102Y-78495226D01*
X136148061Y-78535000D01*
X136351939Y-78535000D01*
X136551898Y-78495226D01*
X136740256Y-78417205D01*
X136909774Y-78303937D01*
X137053937Y-78159774D01*
X137167205Y-77990256D01*
X137245226Y-77801898D01*
X137285000Y-77601939D01*
X137285000Y-77539801D01*
X137618513Y-77206289D01*
X137582795Y-77259744D01*
X137504774Y-77448102D01*
X137465000Y-77648061D01*
X137465000Y-77851939D01*
X137504774Y-78051898D01*
X137582795Y-78240256D01*
X137696063Y-78409774D01*
X137840226Y-78553937D01*
X138009744Y-78667205D01*
X138198102Y-78745226D01*
X138398061Y-78785000D01*
X138601939Y-78785000D01*
X138801898Y-78745226D01*
X138990256Y-78667205D01*
X139159774Y-78553937D01*
X139303937Y-78409774D01*
X139417205Y-78240256D01*
X139495226Y-78051898D01*
X139535000Y-77851939D01*
X139535000Y-77789801D01*
X140524802Y-76800000D01*
X147501889Y-76800000D01*
X147615944Y-76970696D01*
X147819304Y-77174056D01*
X148058431Y-77333835D01*
X148324134Y-77443893D01*
X148606203Y-77500000D01*
X148893797Y-77500000D01*
X149175866Y-77443893D01*
X149441569Y-77333835D01*
X149680696Y-77174056D01*
X149765001Y-77089751D01*
X149765001Y-79819063D01*
X149699482Y-79799188D01*
X149575000Y-79786928D01*
X147925000Y-79786928D01*
X147800518Y-79799188D01*
X147680820Y-79835498D01*
X147570506Y-79894463D01*
X147473815Y-79973815D01*
X147394463Y-80070506D01*
X147335498Y-80180820D01*
X147299188Y-80300518D01*
X147286928Y-80425000D01*
X147286928Y-82075000D01*
X147299188Y-82199482D01*
X147335498Y-82319180D01*
X147394463Y-82429494D01*
X147473815Y-82526185D01*
X147570506Y-82605537D01*
X147680820Y-82664502D01*
X147780506Y-82694742D01*
X147615944Y-82859304D01*
X147456165Y-83098431D01*
X147346107Y-83364134D01*
X147290000Y-83646203D01*
X147290000Y-83933797D01*
X147346107Y-84215866D01*
X147456165Y-84481569D01*
X147615944Y-84720696D01*
X147819304Y-84924056D01*
X148058431Y-85083835D01*
X148324134Y-85193893D01*
X148606203Y-85250000D01*
X148893797Y-85250000D01*
X149175866Y-85193893D01*
X149441569Y-85083835D01*
X149680696Y-84924056D01*
X149765001Y-84839751D01*
X149765000Y-87569063D01*
X149699482Y-87549188D01*
X149575000Y-87536928D01*
X147925000Y-87536928D01*
X147800518Y-87549188D01*
X147680820Y-87585498D01*
X147570506Y-87644463D01*
X147473815Y-87723815D01*
X147394463Y-87820506D01*
X147335498Y-87930820D01*
X147299188Y-88050518D01*
X147286928Y-88175000D01*
X147286928Y-89825000D01*
X147299188Y-89949482D01*
X147335498Y-90069180D01*
X147394463Y-90179494D01*
X147473815Y-90276185D01*
X147570506Y-90355537D01*
X147680820Y-90414502D01*
X147780506Y-90444742D01*
X147615944Y-90609304D01*
X147456165Y-90848431D01*
X147346107Y-91114134D01*
X147290000Y-91396203D01*
X147290000Y-91683797D01*
X147346107Y-91965866D01*
X147456165Y-92231569D01*
X147615944Y-92470696D01*
X147819304Y-92674056D01*
X148058431Y-92833835D01*
X148324134Y-92943893D01*
X148606203Y-93000000D01*
X148893797Y-93000000D01*
X149175866Y-92943893D01*
X149441569Y-92833835D01*
X149680696Y-92674056D01*
X149765000Y-92589752D01*
X149765000Y-95829045D01*
X149618761Y-96047908D01*
X149467243Y-96413704D01*
X149390000Y-96802032D01*
X149390000Y-97197968D01*
X149467243Y-97586296D01*
X149618761Y-97952092D01*
X149838731Y-98281301D01*
X150118699Y-98561269D01*
X150447908Y-98781239D01*
X150813704Y-98932757D01*
X151202032Y-99010000D01*
X151597968Y-99010000D01*
X151986296Y-98932757D01*
X152352092Y-98781239D01*
X152681301Y-98561269D01*
X152961269Y-98281301D01*
X153181239Y-97952092D01*
X153332757Y-97586296D01*
X153410000Y-97197968D01*
X153410000Y-96802032D01*
X153332757Y-96413704D01*
X153181239Y-96047908D01*
X153035000Y-95829045D01*
X153035000Y-92669323D01*
X153073663Y-92797073D01*
X153333439Y-92920473D01*
X153612297Y-92990823D01*
X153899521Y-93005417D01*
X154184074Y-92963697D01*
X154455020Y-92867265D01*
X154586337Y-92797073D01*
X154660946Y-92550551D01*
X153830000Y-91719605D01*
X153815858Y-91733748D01*
X153636253Y-91554143D01*
X153650395Y-91540000D01*
X154009605Y-91540000D01*
X154840551Y-92370946D01*
X155087073Y-92296337D01*
X155210473Y-92036561D01*
X155280823Y-91757703D01*
X155295417Y-91470479D01*
X155253697Y-91185926D01*
X155157265Y-90914980D01*
X155087073Y-90783663D01*
X154840551Y-90709054D01*
X154009605Y-91540000D01*
X153650395Y-91540000D01*
X153636253Y-91525858D01*
X153815858Y-91346253D01*
X153830000Y-91360395D01*
X154660946Y-90529449D01*
X154586337Y-90282927D01*
X154560728Y-90270762D01*
X154586337Y-90257073D01*
X154660946Y-90010551D01*
X153830000Y-89179605D01*
X153815858Y-89193748D01*
X153636253Y-89014143D01*
X153650395Y-89000000D01*
X154009605Y-89000000D01*
X154840551Y-89830946D01*
X155087073Y-89756337D01*
X155210473Y-89496561D01*
X155280823Y-89217703D01*
X155295417Y-88930479D01*
X155253697Y-88645926D01*
X155157265Y-88374980D01*
X155087073Y-88243663D01*
X154840551Y-88169054D01*
X154009605Y-89000000D01*
X153650395Y-89000000D01*
X153636253Y-88985858D01*
X153815858Y-88806253D01*
X153830000Y-88820395D01*
X154660946Y-87989449D01*
X154586337Y-87742927D01*
X154326561Y-87619527D01*
X154047703Y-87549177D01*
X153760479Y-87534583D01*
X153475926Y-87576303D01*
X153204980Y-87672735D01*
X153073663Y-87742927D01*
X153035000Y-87870677D01*
X153035000Y-84919323D01*
X153073663Y-85047073D01*
X153333439Y-85170473D01*
X153612297Y-85240823D01*
X153899521Y-85255417D01*
X154184074Y-85213697D01*
X154455020Y-85117265D01*
X154586337Y-85047073D01*
X154660946Y-84800551D01*
X153830000Y-83969605D01*
X153815858Y-83983748D01*
X153636253Y-83804143D01*
X153650395Y-83790000D01*
X154009605Y-83790000D01*
X154840551Y-84620946D01*
X155087073Y-84546337D01*
X155210473Y-84286561D01*
X155280823Y-84007703D01*
X155295417Y-83720479D01*
X155253697Y-83435926D01*
X155157265Y-83164980D01*
X155087073Y-83033663D01*
X154840551Y-82959054D01*
X154009605Y-83790000D01*
X153650395Y-83790000D01*
X153636253Y-83775858D01*
X153815858Y-83596253D01*
X153830000Y-83610395D01*
X154660946Y-82779449D01*
X154586337Y-82532927D01*
X154560728Y-82520762D01*
X154586337Y-82507073D01*
X154660946Y-82260551D01*
X153830000Y-81429605D01*
X153815858Y-81443748D01*
X153636253Y-81264143D01*
X153650395Y-81250000D01*
X154009605Y-81250000D01*
X154840551Y-82080946D01*
X155087073Y-82006337D01*
X155210473Y-81746561D01*
X155280823Y-81467703D01*
X155295417Y-81180479D01*
X155253697Y-80895926D01*
X155157265Y-80624980D01*
X155087073Y-80493663D01*
X154840551Y-80419054D01*
X154009605Y-81250000D01*
X153650395Y-81250000D01*
X153636253Y-81235858D01*
X153815858Y-81056253D01*
X153830000Y-81070395D01*
X154660946Y-80239449D01*
X154586337Y-79992927D01*
X154326561Y-79869527D01*
X154047703Y-79799177D01*
X153760479Y-79784583D01*
X153475926Y-79826303D01*
X153204980Y-79922735D01*
X153073663Y-79992927D01*
X153035000Y-80120677D01*
X153035000Y-77169323D01*
X153073663Y-77297073D01*
X153333439Y-77420473D01*
X153612297Y-77490823D01*
X153899521Y-77505417D01*
X154184074Y-77463697D01*
X154455020Y-77367265D01*
X154586337Y-77297073D01*
X154660946Y-77050551D01*
X153830000Y-76219605D01*
X153815858Y-76233748D01*
X153636253Y-76054143D01*
X153650395Y-76040000D01*
X154009605Y-76040000D01*
X154840551Y-76870946D01*
X155087073Y-76796337D01*
X155210473Y-76536561D01*
X155280823Y-76257703D01*
X155295417Y-75970479D01*
X155253697Y-75685926D01*
X155157265Y-75414980D01*
X155087073Y-75283663D01*
X154840551Y-75209054D01*
X154009605Y-76040000D01*
X153650395Y-76040000D01*
X153636253Y-76025858D01*
X153815858Y-75846253D01*
X153830000Y-75860395D01*
X154660946Y-75029449D01*
X154586337Y-74782927D01*
X154560728Y-74770762D01*
X154586337Y-74757073D01*
X154660946Y-74510551D01*
X153830000Y-73679605D01*
X153815858Y-73693748D01*
X153636253Y-73514143D01*
X153650395Y-73500000D01*
X154009605Y-73500000D01*
X154840551Y-74330946D01*
X155087073Y-74256337D01*
X155210473Y-73996561D01*
X155280823Y-73717703D01*
X155295417Y-73430479D01*
X155253697Y-73145926D01*
X155157265Y-72874980D01*
X155087073Y-72743663D01*
X154840551Y-72669054D01*
X154009605Y-73500000D01*
X153650395Y-73500000D01*
X152819449Y-72669054D01*
X152758124Y-72687614D01*
X152595496Y-72489449D01*
X152999054Y-72489449D01*
X153830000Y-73320395D01*
X154660946Y-72489449D01*
X154586337Y-72242927D01*
X154326561Y-72119527D01*
X154047703Y-72049177D01*
X153760479Y-72034583D01*
X153475926Y-72076303D01*
X153204980Y-72172735D01*
X153073663Y-72242927D01*
X152999054Y-72489449D01*
X152595496Y-72489449D01*
X152561714Y-72448286D01*
X152312752Y-72243969D01*
X152028715Y-72092148D01*
X151720516Y-71998657D01*
X151400000Y-71967089D01*
X151079485Y-71998657D01*
X150771286Y-72092148D01*
X150487249Y-72243969D01*
X150238287Y-72448286D01*
X150188283Y-72509216D01*
X150164502Y-72430820D01*
X150105537Y-72320506D01*
X150026185Y-72223815D01*
X149929494Y-72144463D01*
X149819180Y-72085498D01*
X149699482Y-72049188D01*
X149575000Y-72036928D01*
X147925000Y-72036928D01*
X147800518Y-72049188D01*
X147680820Y-72085498D01*
X147570506Y-72144463D01*
X147473815Y-72223815D01*
X147394463Y-72320506D01*
X147335498Y-72430820D01*
X147299188Y-72550518D01*
X147286928Y-72675000D01*
X147286928Y-73490000D01*
X139537322Y-73490000D01*
X139499999Y-73486324D01*
X139462676Y-73490000D01*
X139462667Y-73490000D01*
X139351014Y-73500997D01*
X139207753Y-73544454D01*
X139075723Y-73615026D01*
X139034342Y-73648987D01*
X138959999Y-73709999D01*
X138936201Y-73738997D01*
X136210199Y-76465000D01*
X136148061Y-76465000D01*
X135948102Y-76504774D01*
X135759744Y-76582795D01*
X135590226Y-76696063D01*
X135446063Y-76840226D01*
X135332795Y-77009744D01*
X135254774Y-77198102D01*
X135215000Y-77398061D01*
X130426740Y-77398061D01*
X134551004Y-73273798D01*
X134580001Y-73250001D01*
X134674974Y-73134276D01*
X134702392Y-73082980D01*
X134743411Y-73065990D01*
X134986632Y-72903475D01*
X135193475Y-72696632D01*
X135315195Y-72514466D01*
X135384822Y-72631355D01*
X135579731Y-72847588D01*
X135813080Y-73021641D01*
X136075901Y-73146825D01*
X136223110Y-73191476D01*
X136453000Y-73070155D01*
X136453000Y-71877000D01*
X136433000Y-71877000D01*
X136433000Y-71623000D01*
X136453000Y-71623000D01*
X136453000Y-70429845D01*
X136707000Y-70429845D01*
X136707000Y-71623000D01*
X136727000Y-71623000D01*
X136727000Y-71877000D01*
X136707000Y-71877000D01*
X136707000Y-73070155D01*
X136936890Y-73191476D01*
X137084099Y-73146825D01*
X137346920Y-73021641D01*
X137580269Y-72847588D01*
X137775178Y-72631355D01*
X137844805Y-72514466D01*
X137966525Y-72696632D01*
X138173368Y-72903475D01*
X138416589Y-73065990D01*
X138686842Y-73177932D01*
X138973740Y-73235000D01*
X139266260Y-73235000D01*
X139553158Y-73177932D01*
X139823411Y-73065990D01*
X140066632Y-72903475D01*
X140273475Y-72696632D01*
X140390000Y-72522240D01*
X140506525Y-72696632D01*
X140713368Y-72903475D01*
X140956589Y-73065990D01*
X141226842Y-73177932D01*
X141513740Y-73235000D01*
X141806260Y-73235000D01*
X142093158Y-73177932D01*
X142363411Y-73065990D01*
X142606632Y-72903475D01*
X142813475Y-72696632D01*
X142975990Y-72453411D01*
X143087932Y-72183158D01*
X143145000Y-71896260D01*
X143145000Y-71603740D01*
X143087932Y-71316842D01*
X142975990Y-71046589D01*
X142813475Y-70803368D01*
X142606632Y-70596525D01*
X142363411Y-70434010D01*
X142093158Y-70322068D01*
X141806260Y-70265000D01*
X141513740Y-70265000D01*
X141226842Y-70322068D01*
X140956589Y-70434010D01*
X140713368Y-70596525D01*
X140506525Y-70803368D01*
X140390000Y-70977760D01*
X140273475Y-70803368D01*
X140066632Y-70596525D01*
X139823411Y-70434010D01*
X139553158Y-70322068D01*
X139266260Y-70265000D01*
X138973740Y-70265000D01*
X138686842Y-70322068D01*
X138416589Y-70434010D01*
X138173368Y-70596525D01*
X137966525Y-70803368D01*
X137844805Y-70985534D01*
X137775178Y-70868645D01*
X137580269Y-70652412D01*
X137346920Y-70478359D01*
X137084099Y-70353175D01*
X136936890Y-70308524D01*
X136707000Y-70429845D01*
X136453000Y-70429845D01*
X136223110Y-70308524D01*
X136075901Y-70353175D01*
X135813080Y-70478359D01*
X135579731Y-70652412D01*
X135384822Y-70868645D01*
X135315195Y-70985534D01*
X135193475Y-70803368D01*
X134986632Y-70596525D01*
X134743411Y-70434010D01*
X134473158Y-70322068D01*
X134186260Y-70265000D01*
X133893740Y-70265000D01*
X133606842Y-70322068D01*
X133336589Y-70434010D01*
X133093368Y-70596525D01*
X132961513Y-70728380D01*
X132939502Y-70655820D01*
X132880537Y-70545506D01*
X132801185Y-70448815D01*
X132704494Y-70369463D01*
X132594180Y-70310498D01*
X132474482Y-70274188D01*
X132350000Y-70261928D01*
X130650000Y-70261928D01*
X130525518Y-70274188D01*
X130405820Y-70310498D01*
X130295506Y-70369463D01*
X130198815Y-70448815D01*
X130119463Y-70545506D01*
X130060498Y-70655820D01*
X130024188Y-70775518D01*
X130011928Y-70900000D01*
X130011928Y-72600000D01*
X130024188Y-72724482D01*
X130060498Y-72844180D01*
X130119463Y-72954494D01*
X130198815Y-73051185D01*
X130295506Y-73130537D01*
X130405820Y-73189502D01*
X130525518Y-73225812D01*
X130650000Y-73238072D01*
X132350000Y-73238072D01*
X132446645Y-73228554D01*
X129085199Y-76590000D01*
X129023061Y-76590000D01*
X128823102Y-76629774D01*
X128634744Y-76707795D01*
X128465226Y-76821063D01*
X128321063Y-76965226D01*
X128207795Y-77134744D01*
X128129774Y-77323102D01*
X128090000Y-77523061D01*
X128090000Y-77585197D01*
X125960199Y-79715000D01*
X125898061Y-79715000D01*
X125698102Y-79754774D01*
X125509744Y-79832795D01*
X125340226Y-79946063D01*
X125196063Y-80090226D01*
X125082795Y-80259744D01*
X125004774Y-80448102D01*
X124965000Y-80648061D01*
X118685000Y-80648061D01*
X118685000Y-78600000D01*
X120761928Y-78600000D01*
X120774188Y-78724482D01*
X120810498Y-78844180D01*
X120869463Y-78954494D01*
X120948815Y-79051185D01*
X121045506Y-79130537D01*
X121155820Y-79189502D01*
X121275518Y-79225812D01*
X121400000Y-79238072D01*
X121964250Y-79235000D01*
X122123000Y-79076250D01*
X122123000Y-77877000D01*
X122377000Y-77877000D01*
X122377000Y-79076250D01*
X122535750Y-79235000D01*
X123100000Y-79238072D01*
X123224482Y-79225812D01*
X123344180Y-79189502D01*
X123454494Y-79130537D01*
X123551185Y-79051185D01*
X123630537Y-78954494D01*
X123689502Y-78844180D01*
X123725812Y-78724482D01*
X123738072Y-78600000D01*
X123735000Y-78035750D01*
X123576250Y-77877000D01*
X122377000Y-77877000D01*
X122123000Y-77877000D01*
X120923750Y-77877000D01*
X120765000Y-78035750D01*
X120761928Y-78600000D01*
X118685000Y-78600000D01*
X118685000Y-76900000D01*
X120761928Y-76900000D01*
X120765000Y-77464250D01*
X120923750Y-77623000D01*
X122123000Y-77623000D01*
X122123000Y-77603000D01*
X122377000Y-77603000D01*
X122377000Y-77623000D01*
X123576250Y-77623000D01*
X123735000Y-77464250D01*
X123738072Y-76900000D01*
X123725812Y-76775518D01*
X123689502Y-76655820D01*
X123630537Y-76545506D01*
X123551185Y-76448815D01*
X123454494Y-76369463D01*
X123344180Y-76310498D01*
X123271620Y-76288487D01*
X123403475Y-76156632D01*
X123565990Y-75913411D01*
X123677932Y-75643158D01*
X123735000Y-75356260D01*
X123735000Y-75063740D01*
X123677932Y-74776842D01*
X123565990Y-74506589D01*
X123403475Y-74263368D01*
X123196632Y-74056525D01*
X123022240Y-73940000D01*
X123196632Y-73823475D01*
X123403475Y-73616632D01*
X123565990Y-73373411D01*
X123677932Y-73103158D01*
X123735000Y-72816260D01*
X123735000Y-72523740D01*
X123677932Y-72236842D01*
X123565990Y-71966589D01*
X123403475Y-71723368D01*
X123196632Y-71516525D01*
X122953411Y-71354010D01*
X122683158Y-71242068D01*
X122396260Y-71185000D01*
X122103740Y-71185000D01*
X121816842Y-71242068D01*
X121546589Y-71354010D01*
X121303368Y-71516525D01*
X121096525Y-71723368D01*
X120934010Y-71966589D01*
X120822068Y-72236842D01*
X120765000Y-72523740D01*
X120765000Y-72816260D01*
X120822068Y-73103158D01*
X120934010Y-73373411D01*
X121096525Y-73616632D01*
X121303368Y-73823475D01*
X121477760Y-73940000D01*
X121303368Y-74056525D01*
X121096525Y-74263368D01*
X120934010Y-74506589D01*
X120822068Y-74776842D01*
X120765000Y-75063740D01*
X120765000Y-75356260D01*
X120822068Y-75643158D01*
X120934010Y-75913411D01*
X121096525Y-76156632D01*
X121228380Y-76288487D01*
X121155820Y-76310498D01*
X121045506Y-76369463D01*
X120948815Y-76448815D01*
X120869463Y-76545506D01*
X120810498Y-76655820D01*
X120774188Y-76775518D01*
X120761928Y-76900000D01*
X118685000Y-76900000D01*
X118685000Y-70185000D01*
X157315000Y-70185000D01*
X157315001Y-100815000D01*
G37*
G04 #@! TD.AperFunction*
M02*
